<svg width="250" height="40" viewBox="0 0 250 40" fill="none" xmlns="http://www.w3.org/2000/svg">
<path d="M118.58 34.9405C118.55 35.0487 118.536 35.1621 118.536 35.2769C118.536 35.5665 118.628 35.7935 118.811 35.9563C118.995 36.1191 119.237 36.2446 119.536 36.3314C119.836 36.4181 120.176 36.4822 120.558 36.5209C120.94 36.5609 121.33 36.601 121.727 36.641C122.123 36.6811 122.513 36.7331 122.895 36.7985C123.277 36.8639 123.618 36.9694 123.917 37.1135C124.216 37.259 124.459 37.4526 124.642 37.6955C124.826 37.9384 124.918 38.2588 124.918 38.6579C124.918 38.8314 124.896 39.0276 124.852 39.2452H122.88V39.1904C122.88 38.9662 122.743 38.786 122.469 38.6525C122.195 38.519 121.833 38.4176 121.386 38.3482C120.939 38.2788 120.433 38.2347 119.869 38.212C119.305 38.1894 118.739 38.18 118.168 38.18C117.793 38.18 117.361 38.1894 116.874 38.2067C116.387 38.2254 115.904 38.2521 115.427 38.2881L115.752 36.7558H116.749C116.661 36.6544 116.576 36.5262 116.493 36.3701C116.409 36.2139 116.368 35.9883 116.368 35.6907C116.368 35.5892 116.373 35.4784 116.384 35.3597C116.395 35.2395 116.419 35.1074 116.455 34.9632L117.282 31.0938H124.355C125.142 31.0938 125.715 31.2085 126.073 31.4368C126.431 31.665 126.609 32.0401 126.609 32.562C126.609 32.6701 126.604 32.7862 126.593 32.9104C126.582 33.0332 126.558 33.164 126.522 33.3014L126.415 33.7793C126.335 34.1704 126.219 34.5041 126.067 34.779C125.916 35.054 125.719 35.2796 125.476 35.4531C125.234 35.6266 124.94 35.7534 124.593 35.8335C124.246 35.9136 123.838 35.9536 123.369 35.9536H122.816C122.463 35.9536 122.141 35.9283 121.852 35.8775C121.563 35.8268 121.316 35.7441 121.109 35.6279C120.903 35.5118 120.745 35.361 120.633 35.1768C120.521 34.9926 120.465 34.7657 120.465 34.4974C120.465 34.4173 120.469 34.3386 120.476 34.2585C120.483 34.1784 120.497 34.0916 120.52 33.9982L120.758 32.8676H119.013L118.58 34.9405ZM122.848 32.8636L122.665 33.7326C122.658 33.7686 122.651 33.8033 122.649 33.8354C122.645 33.8687 122.644 33.9021 122.644 33.9381C122.644 34.0396 122.673 34.1197 122.73 34.1771C122.787 34.2358 122.888 34.2638 123.033 34.2638H123.63C123.838 34.2638 123.987 34.2144 124.074 34.117C124.16 34.0195 124.222 33.8834 124.258 33.7099L124.333 33.3402C124.34 33.3108 124.345 33.2854 124.349 33.2641C124.353 33.2427 124.355 33.22 124.355 33.1987C124.355 32.9744 124.203 32.8623 123.9 32.8623H122.848V32.8636Z" fill="#EFE7D8"/>
<path d="M130.683 37.3551L131.41 33.9528C130.832 33.8514 130.364 33.7259 130.006 33.5777C129.648 33.4296 129.37 33.2667 129.172 33.0879C128.973 32.9104 128.838 32.7235 128.766 32.5286C128.694 32.3324 128.658 32.1375 128.658 31.9413C128.658 31.8038 128.669 31.6717 128.69 31.5449C128.711 31.4181 128.734 31.2966 128.755 31.1805L128.777 31.0938H130.792C130.778 31.1525 130.771 31.2019 130.771 31.2459C130.771 31.3327 130.803 31.4274 130.868 31.5289C130.934 31.6303 131.075 31.7358 131.291 31.8439C131.508 31.952 131.821 32.0628 132.228 32.1749C132.637 32.287 133.188 32.3978 133.881 32.5059L132.461 39.2452H128.863C128.452 39.2452 128.097 39.2198 127.801 39.1691C127.504 39.1184 127.262 39.0356 127.075 38.9195C126.887 38.8034 126.75 38.6472 126.663 38.4523C126.577 38.2561 126.533 38.0145 126.533 37.7235C126.533 37.3978 126.58 37.0201 126.674 36.593L126.912 35.4624H129.08L128.842 36.593C128.827 36.6731 128.815 36.7451 128.804 36.8105C128.794 36.876 128.788 36.9373 128.788 36.9947C128.788 37.1402 128.832 37.2363 128.919 37.2831C129.005 37.3298 129.153 37.3538 129.363 37.3538H130.683V37.3551Z" fill="#EFE7D8"/>
<path d="M136.871 33.6378C136.856 33.7099 136.85 33.7686 136.85 33.8113C136.85 33.9341 136.882 34.0489 136.947 34.1544C137.012 34.2598 137.134 34.3119 137.315 34.3119H138.442L138.085 35.9963H136.86C136.47 35.9963 136.142 35.9496 135.874 35.8549C135.607 35.7601 135.393 35.6333 135.229 35.4744C135.067 35.3156 134.949 35.1301 134.876 34.9205C134.804 34.711 134.769 34.4894 134.769 34.2571C134.769 33.9595 134.826 33.6285 134.942 33.2627C135.057 32.897 135.24 32.5526 135.488 32.2296C135.737 31.9066 136.061 31.637 136.458 31.4194C136.856 31.2019 137.339 31.0938 137.91 31.0938H139.558C139.933 31.0938 140.244 31.1431 140.489 31.2406C140.735 31.338 140.929 31.4675 141.075 31.6263C141.22 31.7865 141.319 31.9667 141.378 32.1696C141.435 32.3725 141.464 32.5753 141.464 32.7782C141.464 32.8943 141.458 33.0051 141.443 33.1092C141.428 33.2147 141.411 33.3175 141.389 33.4189L141.269 33.9835H143.62C144.299 33.9835 144.824 34.1343 145.197 34.4347C145.57 34.735 145.754 35.1755 145.754 35.7547C145.754 35.9723 145.729 36.1939 145.679 36.4181L145.548 36.9947C145.468 37.3858 145.333 37.7249 145.142 38.0105C144.951 38.2975 144.722 38.5311 144.454 38.7113C144.187 38.8928 143.888 39.0263 143.555 39.113C143.222 39.1998 142.876 39.2438 142.514 39.2438H137.995L139.23 33.4069C139.237 33.3775 139.241 33.3495 139.241 33.3201C139.241 33.2908 139.241 33.2654 139.241 33.2441C139.241 33.0705 139.136 32.9824 138.927 32.9824H137.594C137.478 32.9824 137.378 33.0025 137.295 33.0425C137.213 33.0825 137.142 33.1346 137.084 33.2C137.025 33.2654 136.979 33.3362 136.943 33.4122C136.911 33.491 136.886 33.5644 136.871 33.6378ZM140.87 35.8762L140.556 37.3551H142.485C142.832 37.3551 143.081 37.3004 143.233 37.1923C143.385 37.0842 143.482 36.92 143.526 36.7024L143.558 36.5396C143.579 36.4528 143.589 36.3767 143.589 36.3113C143.589 36.1525 143.528 36.0391 143.406 35.975C143.283 35.9096 143.073 35.8775 142.778 35.8775H140.87V35.8762Z" fill="#EFE7D8"/>
<path d="M147.556 33.9742C147.672 33.4243 147.833 32.9651 148.038 32.5994C148.244 32.2336 148.504 31.9387 148.818 31.7131C149.132 31.4888 149.502 31.3287 149.929 31.2352C150.355 31.1405 150.85 31.0938 151.414 31.0938H154.589C155.506 31.0938 156.191 31.2299 156.642 31.5009C157.093 31.7731 157.319 32.2523 157.319 32.9411C157.319 33.0932 157.31 33.2547 157.293 33.4242C157.274 33.5951 157.243 33.778 157.201 33.9728L156.084 39.2452H153.917L155.033 33.9728C155.077 33.77 155.098 33.5964 155.098 33.4509C155.098 33.2187 155.027 33.0719 154.882 33.0105C154.736 32.9491 154.509 32.9184 154.199 32.9184H153.636L152.78 36.9614H150.775L151.631 32.9184H151.024C150.822 32.9184 150.65 32.929 150.509 32.9504C150.368 32.9718 150.247 33.0171 150.146 33.0866C150.045 33.156 149.962 33.2601 149.897 33.4016C149.832 33.543 149.774 33.7326 149.724 33.9728L148.607 39.2452H146.44L147.556 33.9742Z" fill="#EFE7D8"/>
<path d="M161.145 33.4416H159.129L159.215 33.0505C159.287 32.7395 159.376 32.4619 159.482 32.219C159.587 31.976 159.738 31.7718 159.937 31.605C160.135 31.4381 160.392 31.3113 160.706 31.2246C161.02 31.1378 161.419 31.0938 161.903 31.0938H165.003L164.331 34.2358C164.504 34.2798 164.663 34.3372 164.807 34.4093C164.952 34.4814 165.078 34.5761 165.186 34.6923C165.294 34.8084 165.378 34.9499 165.435 35.1167C165.492 35.2836 165.521 35.4825 165.521 35.7147C165.521 35.8308 165.515 35.9523 165.5 36.0791C165.486 36.2059 165.464 36.342 165.435 36.4862L165.391 36.7358C165.29 37.2003 165.154 37.5914 164.985 37.9104C164.815 38.2294 164.601 38.4883 164.34 38.6872C164.08 38.8861 163.773 39.0303 163.419 39.117C163.065 39.2038 162.65 39.2478 162.172 39.2478H160.243C159.874 39.2478 159.541 39.2171 159.246 39.1557C158.949 39.0943 158.695 38.9929 158.482 38.8514C158.269 38.7099 158.107 38.5257 157.995 38.2975C157.883 38.0692 157.828 37.7916 157.828 37.4659C157.828 37.2337 157.86 36.9694 157.925 36.6717C158.018 36.2152 158.168 35.8282 158.374 35.5092C158.581 35.1901 158.828 34.9312 159.117 34.7323C159.406 34.5334 159.736 34.3893 160.108 34.3025C160.481 34.2158 160.883 34.1717 161.317 34.1717H162.378L162.638 32.921H161.532C161.446 32.921 161.371 32.9397 161.31 32.9758C161.249 33.0118 161.207 33.0919 161.185 33.2147L161.145 33.4416ZM160.127 36.7999C160.12 36.8212 160.116 36.8546 160.116 36.8973C160.116 37.0201 160.16 37.1269 160.247 37.2177C160.333 37.3084 160.478 37.3538 160.681 37.3538H162.295C162.461 37.3538 162.598 37.3364 162.706 37.2991C162.814 37.263 162.899 37.2163 162.96 37.1576C163.021 37.1002 163.065 37.0401 163.09 36.9787C163.116 36.9173 163.136 36.8573 163.15 36.7999L163.258 36.2993C163.265 36.2633 163.27 36.2273 163.274 36.1912C163.278 36.1552 163.279 36.1191 163.279 36.0831C163.279 35.9376 163.23 35.8335 163.133 35.7681C163.036 35.7027 162.875 35.6707 162.651 35.6707H161.037C160.871 35.6707 160.738 35.6893 160.637 35.7254C160.535 35.7614 160.458 35.8108 160.404 35.8722C160.349 35.9336 160.312 36.003 160.291 36.0791C160.269 36.1552 160.251 36.2299 160.236 36.302L160.127 36.7999Z" fill="#EFE7D8"/>
<path d="M168.676 39.2465C168.358 39.2465 168.068 39.2145 167.804 39.1491C167.54 39.0836 167.313 38.9822 167.121 38.8447C166.929 38.7072 166.779 38.5337 166.671 38.3228C166.563 38.1133 166.509 37.8623 166.509 37.5727C166.509 37.3992 166.53 37.207 166.574 36.9961L166.899 35.4638H169.066L168.795 36.7892C168.774 36.8906 168.763 36.9707 168.763 37.0281C168.763 37.1509 168.814 37.2363 168.915 37.2831C169.016 37.3298 169.203 37.3538 169.478 37.3538H170.887L171.689 33.5711C171.696 33.535 171.701 33.499 171.705 33.463C171.709 33.4269 171.71 33.3949 171.71 33.3655C171.71 33.22 171.665 33.1213 171.575 33.0665C171.484 33.0118 171.352 32.9851 171.179 32.9851H170.237C170.027 32.9851 169.863 33.0158 169.744 33.0772C169.624 33.1386 169.536 33.2934 169.478 33.539L169.38 33.9848H167.213L167.354 33.3442C167.434 32.9891 167.544 32.6714 167.684 32.3925C167.825 32.1135 168.011 31.8786 168.241 31.6864C168.473 31.4942 168.758 31.3474 169.097 31.2459C169.436 31.1445 169.845 31.0938 170.321 31.0938H171.741C172.529 31.0938 173.101 31.2152 173.459 31.4581C173.817 31.7011 173.995 32.0828 173.995 32.6047C173.995 32.7208 173.988 32.8383 173.974 32.9584C173.959 33.0785 173.938 33.2067 173.909 33.3442L172.662 39.2465H168.676Z" fill="#EFE7D8"/>
<path d="M180.997 34.9405C180.968 35.0487 180.953 35.1621 180.953 35.2769C180.953 35.5665 181.045 35.7935 181.229 35.9563C181.412 36.1191 181.654 36.2446 181.954 36.3314C182.253 36.4181 182.594 36.4822 182.976 36.5209C183.358 36.5609 183.748 36.601 184.144 36.641C184.541 36.6811 184.931 36.7331 185.312 36.7985C185.694 36.8639 186.035 36.9694 186.334 37.1135C186.634 37.259 186.876 37.4526 187.06 37.6955C187.243 37.9384 187.335 38.2588 187.335 38.6579C187.335 38.8314 187.314 39.0276 187.27 39.2452H185.298V39.1904C185.298 38.9662 185.161 38.786 184.887 38.6525C184.612 38.519 184.251 38.4176 183.803 38.3482C183.356 38.2788 182.851 38.2347 182.286 38.212C181.722 38.1894 181.157 38.18 180.586 38.18C180.211 38.18 179.778 38.1894 179.291 38.2067C178.804 38.2254 178.321 38.2521 177.845 38.2881L178.169 36.7558H179.166C179.078 36.6544 178.993 36.5262 178.911 36.3701C178.827 36.2139 178.785 35.9883 178.785 35.6907C178.785 35.5892 178.791 35.4784 178.801 35.3597C178.812 35.2395 178.836 35.1074 178.872 34.9632L179.7 31.0938H186.772C187.56 31.0938 188.132 31.2085 188.49 31.4368C188.848 31.665 189.026 32.0401 189.026 32.562C189.026 32.6701 189.021 32.7862 189.01 32.9104C189 33.0332 188.976 33.164 188.94 33.3014L188.832 33.7793C188.752 34.1704 188.636 34.5041 188.485 34.779C188.333 35.054 188.136 35.2796 187.894 35.4531C187.652 35.6266 187.358 35.7534 187.01 35.8335C186.663 35.9136 186.256 35.9536 185.786 35.9536H185.234C184.88 35.9536 184.558 35.9283 184.269 35.8775C183.98 35.8268 183.733 35.7441 183.527 35.6279C183.32 35.5118 183.162 35.361 183.05 35.1768C182.939 34.9926 182.883 34.7657 182.883 34.4974C182.883 34.4173 182.887 34.3386 182.893 34.2585C182.9 34.1784 182.915 34.0916 182.937 33.9982L183.175 32.8676H181.431L180.997 34.9405ZM185.267 32.8636L185.084 33.7326C185.077 33.7686 185.07 33.8033 185.068 33.8354C185.064 33.8687 185.062 33.9021 185.062 33.9381C185.062 34.0396 185.092 34.1197 185.149 34.1771C185.206 34.2358 185.307 34.2638 185.452 34.2638H186.048C186.257 34.2638 186.406 34.2144 186.493 34.117C186.579 34.0195 186.64 33.8834 186.676 33.7099L186.752 33.3402C186.759 33.3108 186.764 33.2854 186.768 33.2641C186.772 33.2427 186.773 33.22 186.773 33.1987C186.773 32.9744 186.622 32.8623 186.318 32.8623H185.267V32.8636Z" fill="#EFE7D8"/>
<path d="M193.167 35.8756H191.682L190.978 39.2459H188.811L189.841 34.3646C190.072 33.2701 190.498 32.4519 191.119 31.9073C191.741 31.3641 192.611 31.0918 193.732 31.0918H198.716L198.316 32.9832H193.374C193.005 32.9832 192.718 33.0539 192.513 33.1954C192.306 33.3369 192.164 33.5998 192.084 33.9829H196.028C196.477 33.9829 196.859 34.0083 197.177 34.059C197.495 34.1097 197.757 34.1965 197.962 34.3193C198.168 34.4421 198.32 34.6076 198.417 34.8145C198.514 35.0213 198.563 35.2803 198.563 35.5913C198.563 35.7581 198.55 35.9397 198.526 36.1345C198.501 36.3308 198.462 36.5443 198.412 36.7752L197.891 39.2432H195.724L196.211 36.8954C196.24 36.7726 196.255 36.6417 196.255 36.5043C196.255 36.0838 196.044 35.8743 195.626 35.8743H195.193L194.706 38.1901H192.679L193.167 35.8756Z" fill="#EFE7D8"/>
<path d="M200.33 33.9742C200.446 33.4243 200.607 32.9651 200.812 32.5994C201.018 32.2336 201.278 31.9387 201.592 31.7131C201.906 31.4888 202.276 31.3287 202.703 31.2352C203.129 31.1405 203.624 31.0938 204.188 31.0938H207.363C208.28 31.0938 208.965 31.2299 209.416 31.5009C209.867 31.7731 210.093 32.2523 210.093 32.9411C210.093 33.0932 210.084 33.2547 210.067 33.4242C210.048 33.5951 210.018 33.778 209.975 33.9728L208.859 39.2452H206.691L207.807 33.9728C207.851 33.77 207.873 33.5964 207.873 33.4509C207.873 33.2187 207.801 33.0719 207.656 33.0105C207.511 32.9491 207.283 32.9184 206.973 32.9184H206.41L205.554 36.9614H203.549L204.405 32.9184H203.798C203.596 32.9184 203.424 32.929 203.283 32.9504C203.142 32.9718 203.021 33.0171 202.92 33.0866C202.819 33.156 202.736 33.2601 202.671 33.4016C202.606 33.543 202.549 33.7326 202.498 33.9728L201.382 39.2452H199.214L200.33 33.9742Z" fill="#EFE7D8"/>
<path d="M56.407 9.29409V3.10879C56.407 2.55086 56.612 2.07301 57.0205 1.67392C57.4183 1.26415 57.8947 1.05859 58.4509 1.05859C59.0191 1.05859 59.5008 1.26415 59.8987 1.67392C60.2966 2.07301 60.4948 2.55086 60.4948 3.10879V23.5934C60.4948 24.1634 60.2966 24.6466 59.8987 25.0457C59.5008 25.4447 59.0191 25.6436 58.4509 25.6436C57.4396 25.6436 56.7929 25.1538 56.5095 24.174C54.9539 25.1885 53.3585 25.6943 51.7231 25.6943C50.5761 25.6943 49.4064 25.4434 48.2141 24.9429C46.5907 24.2595 45.2787 23.1663 44.2794 21.662C43.3027 20.1698 42.8143 18.536 42.8143 16.7581V16.6727C42.8143 15.0096 43.28 13.4546 44.2115 12.009C45.131 10.5288 46.3632 9.43558 47.9081 8.72815C49.0205 8.20492 50.2421 7.91928 51.5701 7.8739H51.7404C53.4649 7.93263 55.0205 8.40514 56.407 9.29409ZM48.2993 13.3945C47.3572 14.3288 46.8861 15.45 46.8861 16.7608C46.8968 17.8766 47.2547 18.879 47.9586 19.768C48.6852 20.6569 49.594 21.2149 50.6838 21.4418C51.0245 21.5099 51.3598 21.5446 51.6885 21.5446C52.5854 21.5446 53.4423 21.2776 54.2607 20.741C55.3731 20.0123 56.0597 19.0045 56.3219 17.7165C56.3897 17.3748 56.4243 17.0451 56.4243 16.7261C56.4243 15.6436 56.0557 14.6585 55.3172 13.7709C54.3631 12.6096 53.1376 12.0117 51.6379 11.977C50.3432 12.0103 49.2294 12.4828 48.2993 13.3945Z" fill="#EFE7D8"/>
<path d="M78.1567 10.5746C79.8826 12.3285 80.7462 14.408 80.7462 16.8106V23.6446C80.7462 24.2145 80.5479 24.6977 80.1501 25.0968C79.7416 25.4959 79.2585 25.6948 78.7023 25.6948C77.691 25.6948 77.039 25.2049 76.7436 24.2252C75.8015 24.8632 74.7795 25.2903 73.6777 25.5066C73.0643 25.632 72.4575 25.6948 71.8547 25.6948C70.1861 25.6948 68.5839 25.1943 67.051 24.1918C64.9845 22.8371 63.7124 20.9684 63.236 18.5885C63.1109 17.9959 63.0484 17.4046 63.0484 16.8119C63.0484 15.3997 63.389 14.0383 64.0703 12.7289C65.0351 10.8495 66.4722 9.50009 68.379 8.67921C69.5034 8.20136 70.6784 7.95043 71.9053 7.92773H71.9558C74.3524 7.95977 76.4202 8.84338 78.1567 10.5746ZM68.5507 13.4443C67.6086 14.3893 67.1375 15.5119 67.1375 16.8106C67.1375 17.9265 67.5008 18.9289 68.2273 19.8178C68.9432 20.7068 69.8454 21.2647 70.9352 21.4916C71.2759 21.5597 71.6045 21.5944 71.9226 21.5944C72.8314 21.5944 73.6937 21.3274 74.512 20.7909C75.6365 20.0621 76.3178 19.0543 76.5559 17.7663C76.6238 17.4139 76.6584 17.0722 76.6584 16.7412C76.6584 15.6814 76.3005 14.7083 75.5859 13.8194C74.6092 12.6461 73.3823 12.0482 71.9066 12.0255C70.6119 12.0495 69.4928 12.522 68.5507 13.4443Z" fill="#EFE7D8"/>
<path d="M88.1381 23.7649C88.0808 25.5415 87.5765 27.1539 86.6224 28.5995C85.6351 30.069 84.3404 31.1449 82.7396 31.8283C81.6497 32.2834 80.4974 32.517 79.2825 32.529C78.7263 32.529 78.2432 32.3301 77.8347 31.931C77.4369 31.5213 77.2386 31.0367 77.2386 30.4788C77.2386 29.9209 77.4369 29.4364 77.8347 29.0266C78.2432 28.6275 78.7263 28.4286 79.2825 28.4286C80.5879 28.4286 81.707 27.9561 82.6384 27.0111C83.5473 26.0888 84.0183 24.9729 84.0516 23.6622V9.99419C84.0516 9.43625 84.2445 8.95841 84.6304 8.55931C85.0389 8.14954 85.5273 7.94398 86.0955 7.94398C86.6517 7.94398 87.1347 8.14954 87.5433 8.55931C87.9411 8.95841 88.1394 9.43625 88.1394 9.99419V23.7649H88.1381ZM86.0263 5.21172C85.4701 5.21172 84.987 5.01284 84.5785 4.61375C84.1807 4.20398 83.9824 3.71946 83.9824 3.16152C83.9824 2.60359 84.1807 2.11907 84.5785 1.7093C84.987 1.31021 85.4701 1.11133 86.0263 1.11133C86.5825 1.11133 87.0655 1.31021 87.4741 1.7093C87.8719 2.11907 88.0702 2.60359 88.0702 3.16152C88.0702 3.71946 87.8719 4.20398 87.4741 4.61375C87.0655 5.01151 86.5825 5.21172 86.0263 5.21172Z" fill="#EFE7D8"/>
<path d="M105.801 10.5746C107.527 12.3285 108.391 14.408 108.391 16.8106V23.6446C108.391 24.2145 108.192 24.6977 107.795 25.0968C107.386 25.4959 106.903 25.6948 106.347 25.6948C105.336 25.6948 104.684 25.2049 104.388 24.2252C103.446 24.8632 102.424 25.2903 101.322 25.5066C100.709 25.632 100.102 25.6948 99.4993 25.6948C97.8306 25.6948 96.2285 25.1943 94.6956 24.1918C92.629 22.8371 91.3569 20.9684 90.8805 18.5885C90.7555 17.9959 90.6929 17.4046 90.6929 16.8119C90.6929 15.3997 91.0336 14.0383 91.7149 12.7289C92.6796 10.8495 94.1167 9.50009 96.0236 8.67921C97.148 8.20136 98.323 7.95043 99.5498 7.92773H99.6004C101.997 7.95977 104.063 8.84338 105.801 10.5746ZM96.1939 13.4443C95.2518 14.3893 94.7807 15.5119 94.7807 16.8106C94.7807 17.9265 95.144 18.9289 95.8705 19.8178C96.5864 20.7068 97.4886 21.2647 98.5784 21.4916C98.9191 21.5597 99.2478 21.5944 99.5658 21.5944C100.475 21.5944 101.337 21.3274 102.155 20.7909C103.28 20.0621 103.961 19.0543 104.199 17.7663C104.267 17.4139 104.302 17.0722 104.302 16.7412C104.302 15.6814 103.944 14.7083 103.229 13.8194C102.252 12.6461 101.026 12.0482 99.5498 12.0255C98.2551 12.0495 97.1373 12.522 96.1939 13.4443Z" fill="#EFE7D8"/>
<path d="M118.779 19.1009L123.753 9.08882C124.003 8.58828 124.395 8.24658 124.928 8.06372C125.144 7.99564 125.359 7.96094 125.575 7.96094C125.893 7.96094 126.199 8.04102 126.494 8.19986C127.005 8.43878 127.346 8.83254 127.516 9.37846C127.584 9.59469 127.619 9.80558 127.619 10.0111C127.619 10.3301 127.544 10.6371 127.398 10.9335L120.585 24.6015C120.176 25.3302 119.574 25.6946 118.779 25.6946C117.973 25.6946 117.366 25.3302 116.956 24.6015L110.143 10.9335C109.996 10.6371 109.922 10.3301 109.922 10.0111C109.922 9.80558 109.957 9.59602 110.025 9.37846C110.206 8.8312 110.546 8.43878 111.047 8.19986C111.342 8.04102 111.648 7.96094 111.966 7.96094C112.182 7.96094 112.397 7.99564 112.613 8.06372C113.147 8.24658 113.538 8.58828 113.788 9.08882L118.779 19.1009Z" fill="#EFE7D8"/>
<path d="M142.404 7.92773C143.063 7.92773 143.574 8.14931 143.937 8.59378C144.277 8.97019 144.448 9.44269 144.448 10.0113C144.448 10.5812 144.277 11.0591 143.937 11.4462C143.574 11.8786 143.063 12.0949 142.404 12.0949H134.296C133.898 12.0949 133.575 12.2083 133.325 12.4366C133.052 12.6982 132.916 13.0239 132.916 13.411C132.916 13.81 133.052 14.1291 133.325 14.368C133.575 14.6189 133.898 14.7444 134.296 14.7444H140.445C141.943 14.7564 143.216 15.297 144.26 16.3675C145.317 17.4273 145.844 18.7086 145.844 20.2116C145.844 21.5677 145.35 22.8024 144.361 23.9196C143.35 25.1048 142.182 25.6961 140.852 25.6961H130.888C130.242 25.6961 129.731 25.4746 129.355 25.0301C129.015 24.6537 128.844 24.1812 128.844 23.6126C128.844 23.0546 129.015 22.5768 129.355 22.1777C129.731 21.7559 130.242 21.545 130.888 21.545H140.494C140.835 21.545 141.13 21.4089 141.381 21.1352C141.631 20.8736 141.756 20.5653 141.756 20.2129C141.756 19.8365 141.62 19.5188 141.347 19.2559C141.097 19.0049 140.779 18.8795 140.393 18.8795H134.296C132.774 18.8795 131.486 18.3496 130.429 17.2911C129.35 16.2206 128.811 14.9272 128.811 13.4123C128.811 11.9093 129.35 10.616 130.429 9.53346C131.486 8.46297 132.774 7.92773 134.296 7.92773H142.404Z" fill="#EFE7D8"/>
<path d="M148.4 3.15957C148.4 2.60164 148.598 2.12379 148.996 1.7247C149.404 1.31493 149.888 1.10938 150.444 1.10938C151 1.10938 151.483 1.31493 151.892 1.7247C152.289 2.12379 152.488 2.60164 152.488 3.15957V9.36089C153.986 8.40386 155.559 7.92602 157.206 7.92602C157.808 7.92602 158.416 7.98875 159.029 8.11422C160.755 8.45592 162.243 9.27013 163.492 10.5568C164.685 11.7875 165.491 13.2798 165.911 15.0336L166.099 16.8102V23.6442C166.099 24.2142 165.901 24.6973 165.503 25.0964C165.094 25.4955 164.611 25.6944 164.055 25.6944C163.499 25.6944 163.016 25.4955 162.607 25.0964C162.209 24.6973 162.011 24.2142 162.011 23.6442V16.8102C161.841 14.6119 160.876 13.1423 159.116 12.4028C158.525 12.1519 157.923 12.0264 157.31 12.0264C156.98 12.0264 156.657 12.0611 156.339 12.1292C155.385 12.3227 154.567 12.7552 153.886 13.4279C153.443 13.8831 153.102 14.3903 152.864 14.9482C152.762 15.1871 152.637 15.8078 152.489 16.8102V23.6442C152.489 24.2142 152.291 24.6973 151.893 25.0964C151.484 25.4955 151.001 25.6944 150.445 25.6944C149.889 25.6944 149.406 25.4955 148.997 25.0964C148.599 24.6973 148.401 24.2142 148.401 23.6442V3.15957H148.4Z" fill="#EFE7D8"/>
<path d="M168.992 9.97794C168.992 9.42 169.197 8.94216 169.605 8.54306C170.003 8.13329 170.48 7.92773 171.036 7.92773C172.058 7.92773 172.711 8.41759 172.994 9.39731C174.46 8.4523 176.078 7.97312 177.849 7.96244C179.632 7.96244 181.255 8.44696 182.72 9.41466C184.605 10.656 185.854 12.4673 186.467 14.8472C186.615 15.4051 186.688 16.0605 186.688 16.8119V23.6459C186.688 24.2159 186.49 24.6991 186.092 25.0981C185.706 25.4972 185.223 25.6961 184.644 25.6961C184.088 25.6961 183.611 25.4972 183.214 25.0981C182.805 24.6991 182.601 24.2159 182.601 23.6459V16.8119C182.601 15.8549 182.333 14.9726 181.799 14.1638C181.254 13.3442 180.55 12.7569 179.688 12.4045C179.086 12.1536 178.483 12.0281 177.882 12.0281C177.314 12.0281 176.74 12.1416 176.161 12.3698C174.98 12.8143 174.118 13.6005 173.572 14.727C173.266 15.3424 173.101 16.0364 173.078 16.8119V23.6459C173.078 24.2159 172.88 24.6991 172.482 25.0981C172.084 25.4972 171.603 25.6961 171.034 25.6961C170.478 25.6961 170 25.4972 169.604 25.0981C169.195 24.6991 168.991 24.2159 168.991 23.6459V9.97794H168.992Z" fill="#EFE7D8"/>
<path d="M194.932 20.8088C195.658 21.3106 196.482 21.5829 197.402 21.6283H197.555C198.406 21.6283 199.201 21.4228 199.939 21.013C200.461 20.706 201.024 20.1587 201.625 19.3726C201.931 18.8947 202.357 18.5864 202.903 18.4502C203.061 18.4049 203.221 18.3822 203.379 18.3822C203.765 18.3822 204.123 18.4849 204.451 18.6892C204.928 18.9855 205.228 19.4073 205.354 19.9532C205.388 20.136 205.404 20.3069 205.404 20.4657C205.404 20.8421 205.302 21.1945 205.098 21.5255C203.996 22.9831 202.946 23.9975 201.947 24.5661C200.619 25.3176 199.199 25.694 197.689 25.694C197.258 25.694 196.825 25.6713 196.394 25.6259C194.408 25.3523 192.715 24.5154 191.319 23.1139C190.547 22.3397 189.934 21.4454 189.48 20.431C189.445 20.3509 189.412 20.2722 189.378 20.1921C189.343 20.1013 189.31 20.0106 189.275 19.9185C188.912 18.8827 188.73 17.8509 188.73 16.8258C188.73 15.6646 188.962 14.5194 189.428 13.3915C190.109 11.751 191.199 10.447 192.699 9.47928C194.141 8.55696 195.77 8.04975 197.588 7.95898H197.894C199.495 7.95898 201.01 8.45418 202.442 9.44591C203.873 10.4363 204.962 11.7417 205.713 13.3581C205.723 13.4035 205.747 13.4489 205.781 13.4943C205.781 13.5169 205.786 13.5343 205.798 13.545V13.5797L205.815 13.597V13.6478C205.826 13.6598 205.833 13.6704 205.833 13.6825V13.6998C205.855 13.7225 205.867 13.7398 205.867 13.7505V13.7852C205.878 13.7972 205.885 13.8199 205.885 13.8533V13.888H205.902V13.9908C205.912 14.0362 205.919 14.0709 205.919 14.0936V14.5033C205.907 14.5153 205.902 14.5314 205.902 14.5541V14.6568C205.89 14.6915 205.879 14.7316 205.867 14.777V14.7943C205.867 14.8063 205.855 14.817 205.833 14.829V14.8797C205.821 14.8917 205.815 14.9078 205.815 14.9305L205.798 14.9812C205.798 14.9932 205.793 15.0039 205.781 15.0159C205.781 15.0279 205.775 15.0439 205.763 15.0666L205.729 15.1013V15.1187L205.712 15.1694L205.694 15.2041L205.677 15.2388L205.66 15.2895C205.66 15.3015 205.648 15.3122 205.625 15.3242C205.625 15.3362 205.62 15.3522 205.608 15.3749C205.596 15.387 205.585 15.3976 205.573 15.4096L205.556 15.4443L205.505 15.4951L205.488 15.5298L205.453 15.5805C205.453 15.5925 205.441 15.6032 205.419 15.6152C205.396 15.6379 205.379 15.6606 205.368 15.6833L205.318 15.718C205.306 15.73 205.295 15.7407 205.283 15.7527L205.266 15.7874L205.248 15.8047L205.214 15.8221C205.202 15.8341 205.191 15.8448 205.179 15.8568L205.145 15.8915C205.122 15.9035 205.105 15.9142 205.094 15.9262C205.071 15.9382 205.044 15.9609 205.009 15.9943L204.974 16.0116C204.962 16.0236 204.952 16.029 204.94 16.029C204.917 16.041 204.894 16.0463 204.872 16.0463V16.0637L204.837 16.0984C204.815 16.0984 204.797 16.1037 204.787 16.1157C204.775 16.1277 204.764 16.1331 204.752 16.1331C204.74 16.1451 204.718 16.1504 204.684 16.1504C204.672 16.1624 204.662 16.1678 204.65 16.1678L194.345 20.371C194.535 20.5351 194.728 20.6833 194.932 20.8088ZM198.27 12.1128C198.02 12.0781 197.77 12.062 197.521 12.062C195.875 12.062 194.581 12.7681 193.638 14.1803C193.15 14.8864 192.883 15.6779 192.837 16.5549L200.792 13.3261C200.054 12.6413 199.213 12.2382 198.27 12.1128Z" fill="#EFE7D8"/>
<path d="M209.666 25.6961C209.11 25.6961 208.627 25.4972 208.219 25.0981C207.821 24.6884 207.622 24.2038 207.622 23.6459C207.622 23.088 207.821 22.6035 208.219 22.1937C208.627 21.7946 209.11 21.5957 209.666 21.5957C210.223 21.5957 210.706 21.7946 211.114 22.1937C211.512 22.6035 211.71 23.088 211.71 23.6459C211.71 24.2038 211.512 24.6884 211.114 25.0981C210.704 25.4972 210.223 25.6961 209.666 25.6961Z" fill="#EFE7D8"/>
<path d="M215.883 22.9799C214.26 21.2835 213.448 19.2439 213.448 16.864V16.7439C213.471 14.2946 214.322 12.2337 216.003 10.5586C217.263 9.28258 218.785 8.47371 220.567 8.13201C221.158 8.02924 221.742 7.97852 222.321 7.97852C223.468 7.97852 224.592 8.20009 225.693 8.64456C227.316 9.32796 228.628 10.4211 229.628 11.9254C230.604 13.4284 231.098 15.0634 231.11 16.8293C231.11 18.5605 230.627 20.1729 229.662 21.6639C228.697 23.1561 227.431 24.2493 225.864 24.9447C224.729 25.4346 223.53 25.6908 222.27 25.7135C221.01 25.8951 220.124 26.1687 219.613 26.5331C218.807 27.0563 218.216 27.7744 217.842 28.6861C217.614 29.2787 217.501 29.882 217.501 30.4973C217.501 30.8163 217.529 31.1353 217.586 31.4544C217.802 32.5475 218.358 33.4538 219.255 34.1706C220.129 34.8994 221.134 35.2638 222.27 35.2638C222.827 35.2638 223.303 35.4627 223.701 35.8617C224.109 36.2715 224.314 36.756 224.314 37.314C224.314 37.8719 224.109 38.3564 223.701 38.7662C223.303 39.1653 222.827 39.3642 222.27 39.3642C220.499 39.3522 218.864 38.8516 217.365 37.8612C215.843 36.8468 214.753 35.5321 214.095 33.9143C213.641 32.8212 213.413 31.704 213.413 30.5654C213.413 29.9621 213.476 29.3574 213.601 28.7541C213.952 26.9776 214.753 25.4626 216.003 24.2093C216.196 24.0157 216.394 23.8329 216.599 23.662C216.36 23.4578 216.121 23.2295 215.883 22.9799ZM222.27 21.6131C223.576 21.5904 224.689 21.1179 225.609 20.1956C226.551 19.2613 227.022 18.1401 227.022 16.8293C227.022 15.7135 226.664 14.7111 225.95 13.8221C225.223 12.9332 224.314 12.3752 223.224 12.1483C222.884 12.0802 222.548 12.0455 222.22 12.0455C221.323 12.0455 220.466 12.3138 219.648 12.8491C218.535 13.5899 217.847 14.5976 217.586 15.8736C217.519 16.2153 217.484 16.5464 217.484 16.864C217.484 17.9465 217.853 18.9316 218.591 19.8192C219.545 20.9805 220.771 21.5784 222.27 21.6131Z" fill="#EFE7D8"/>
<path d="M239.013 20.8088C239.739 21.3106 240.563 21.5829 241.482 21.6283H241.635C242.487 21.6283 243.281 21.4228 244.02 21.013C244.542 20.706 245.104 20.1587 245.706 19.3726C246.012 18.8947 246.438 18.5864 246.983 18.4502C247.142 18.4049 247.301 18.3822 247.46 18.3822C247.846 18.3822 248.204 18.4849 248.532 18.6892C249.009 18.9855 249.309 19.4073 249.434 19.9532C249.469 20.136 249.485 20.3069 249.485 20.4657C249.485 20.8421 249.383 21.1945 249.179 21.5255C248.077 22.9831 247.027 23.9975 246.028 24.5661C244.7 25.3176 243.28 25.694 241.77 25.694C241.339 25.694 240.906 25.6713 240.475 25.6259C238.488 25.3523 236.796 24.5154 235.4 23.1139C234.628 22.3397 234.015 21.4454 233.561 20.431C233.526 20.3509 233.493 20.2722 233.459 20.1921C233.424 20.1013 233.391 20.0106 233.356 19.9185C232.993 18.8827 232.81 17.8509 232.81 16.8258C232.81 15.6646 233.043 14.5194 233.509 13.3915C234.19 11.751 235.28 10.447 236.78 9.47928C238.222 8.55696 239.851 8.04975 241.669 7.95898H241.975C243.576 7.95898 245.091 8.45418 246.523 9.44591C247.953 10.4363 249.043 11.7417 249.794 13.3581C249.804 13.4035 249.828 13.4489 249.862 13.4943C249.862 13.5169 249.867 13.5343 249.879 13.545V13.5797L249.896 13.597V13.6478C249.907 13.6598 249.914 13.6704 249.914 13.6825V13.6998C249.936 13.7225 249.948 13.7398 249.948 13.7505V13.7852C249.959 13.7972 249.965 13.8199 249.965 13.8533V13.888H249.983V13.9908C249.993 14.0362 250 14.0709 250 14.0936V14.5033C249.988 14.5153 249.983 14.5314 249.983 14.5541V14.6568C249.971 14.6915 249.96 14.7316 249.948 14.777V14.7943C249.948 14.8063 249.936 14.817 249.914 14.829V14.8797C249.902 14.8917 249.896 14.9078 249.896 14.9305L249.879 14.9812C249.879 14.9932 249.874 15.0039 249.862 15.0159C249.862 15.0279 249.856 15.0439 249.844 15.0666L249.81 15.1013V15.1187L249.792 15.1694L249.775 15.2041L249.758 15.2388L249.741 15.2895C249.741 15.3015 249.729 15.3122 249.706 15.3242C249.706 15.3362 249.701 15.3522 249.689 15.3749C249.677 15.387 249.666 15.3976 249.654 15.4096L249.637 15.4443L249.586 15.4951L249.569 15.5298L249.534 15.5805C249.534 15.5925 249.522 15.6032 249.5 15.6152C249.477 15.6379 249.46 15.6606 249.449 15.6833L249.399 15.718C249.387 15.73 249.376 15.7407 249.364 15.7527L249.347 15.7874L249.329 15.8047L249.295 15.8221C249.283 15.8341 249.272 15.8448 249.26 15.8568L249.226 15.8915C249.203 15.9035 249.186 15.9142 249.175 15.9262C249.152 15.9382 249.124 15.9609 249.09 15.9943L249.055 16.0116C249.043 16.0236 249.033 16.029 249.021 16.029C248.998 16.041 248.975 16.0463 248.953 16.0463V16.0637L248.918 16.0984C248.896 16.0984 248.878 16.1037 248.868 16.1157C248.856 16.1277 248.845 16.1331 248.833 16.1331C248.821 16.1451 248.798 16.1504 248.765 16.1504C248.753 16.1624 248.743 16.1678 248.731 16.1678L238.426 20.371C238.615 20.5351 238.808 20.6833 239.013 20.8088ZM242.351 12.1128C242.101 12.0781 241.851 12.062 241.602 12.062C239.956 12.062 238.661 12.7681 237.719 14.1803C237.231 14.8864 236.963 15.6779 236.918 16.5549L244.873 13.3261C244.133 12.6413 243.293 12.2382 242.351 12.1128Z" fill="#EFE7D8"/>
<path d="M25.1285 10.7851C25.1152 9.65054 24.1943 8.74023 23.0659 8.74023C23.0579 8.74023 23.05 8.74023 23.042 8.74023L2.0787 8.9845C2.07471 8.9845 2.06939 8.9845 2.0654 8.9845H2.03346C0.894409 9.00052 -0.015761 9.94019 0.000206932 11.0827C0.0161749 12.216 0.936994 13.1223 2.06274 13.1223C2.07205 13.1223 2.08269 13.1223 2.09201 13.1223H2.12394H2.12527L21.0287 12.902L21.2456 31.6408C21.2363 31.7236 21.2309 31.8063 21.2323 31.8917C21.2403 32.4617 21.4785 32.9756 21.855 33.344C22.2289 33.7164 22.7426 33.9473 23.3094 33.9473C23.3174 33.9473 23.3254 33.9473 23.3334 33.9473C23.9069 33.9406 24.4232 33.699 24.7931 33.3146C25.1671 32.9342 25.3959 32.4096 25.3879 31.833C25.3866 31.7502 25.38 31.6702 25.3693 31.5914L25.1285 10.7851Z" fill="#EFE7D8"/>
<path d="M33.9029 23.0916C33.9015 23.0089 33.8949 22.9275 33.8842 22.8487L33.6421 2.04508C33.6354 1.49649 33.4118 0.973261 33.0206 0.588849C32.6294 0.205772 32.1051 -0.00779118 31.5556 0.000217408L10.595 0.245814C10.5936 0.245814 10.5936 0.245814 10.5936 0.245814H10.5617C9.42265 0.253822 8.50582 1.18682 8.5138 2.32938C8.52178 3.4666 9.44393 4.38358 10.5763 4.38358C10.5817 4.38358 10.5856 4.38358 10.591 4.38358H10.6229C10.6242 4.38358 10.6242 4.38358 10.6256 4.38358C10.6282 4.38358 10.6296 4.38358 10.6322 4.38358L29.5423 4.16201L29.7605 22.8994C29.7512 22.9822 29.7459 23.065 29.7472 23.1504C29.7552 23.7203 29.992 24.2329 30.37 24.6026C30.7439 24.9763 31.2575 25.2072 31.8257 25.2072C31.8337 25.2072 31.8417 25.2072 31.8496 25.2072C32.4245 25.2006 32.9408 24.9576 33.3107 24.5732C33.682 24.1915 33.9108 23.6683 33.9029 23.0916Z" fill="#EFE7D8"/>
</svg>
