<svg width="442" height="442" viewBox="0 0 442 442" fill="none" xmlns="http://www.w3.org/2000/svg">
<path d="M172.947 185.721C196.3 153.577 222.846 128.431 246.869 113.753C258.881 106.413 270.24 101.704 280.238 100.031C290.233 98.3596 298.826 99.7281 305.375 104.486C311.923 109.243 315.88 116.993 317.379 127.016C318.878 137.041 317.909 149.299 314.64 162.992C308.104 190.374 292.392 223.392 269.038 255.535C245.684 287.679 219.138 312.825 195.116 327.503C183.104 334.843 171.745 339.552 161.747 341.225C151.752 342.896 143.158 341.528 136.61 336.77C130.062 332.013 126.105 324.263 124.606 314.24C123.107 304.215 124.075 291.957 127.344 278.264C133.881 250.882 149.593 217.864 172.947 185.721Z" stroke="url(#paint0_linear_57_1565)"/>
<path d="M173.563 184.888C197.474 153.157 224.455 128.478 248.73 114.221C260.869 107.091 272.308 102.581 282.334 101.084C292.356 99.5867 300.925 101.105 307.389 105.976C313.853 110.847 317.674 118.665 318.998 128.712C320.322 138.762 319.139 151.002 315.632 164.635C308.618 191.899 292.333 224.637 268.422 256.368C244.511 288.099 217.53 312.778 193.255 327.035C181.116 334.165 169.677 338.675 159.651 340.172C149.629 341.669 141.06 340.151 134.596 335.28C128.132 330.409 124.311 322.591 122.987 312.544C121.663 302.494 122.846 290.254 126.353 276.621C133.367 249.357 149.652 216.619 173.563 184.888Z" stroke="url(#paint1_linear_57_1565)"/>
<path d="M174.194 184.065C198.656 152.756 226.063 128.552 250.583 114.721C262.844 107.805 274.361 103.495 284.411 102.173C294.458 100.851 302.998 102.518 309.377 107.501C315.755 112.485 319.439 120.368 320.587 130.437C321.735 140.508 320.34 152.725 316.595 166.295C309.107 193.433 292.252 225.882 267.791 257.191C243.329 288.5 215.922 312.704 191.402 326.535C179.141 333.451 167.624 337.761 157.574 339.083C147.527 340.405 138.987 338.738 132.608 333.755C126.23 328.771 122.546 320.888 121.398 310.819C120.25 300.748 121.645 288.531 125.39 274.961C132.879 247.823 149.733 215.374 174.194 184.065Z" stroke="url(#paint2_linear_57_1565)"/>
<path d="M174.84 183.254C199.843 152.377 227.669 128.655 252.427 115.253C264.807 108.552 276.397 104.444 286.468 103.297C296.537 102.151 305.047 103.967 311.337 109.061C317.628 114.155 321.174 122.101 322.146 132.189C323.118 142.278 321.51 154.469 317.529 167.972C309.568 194.975 292.149 227.124 267.145 258.002C242.141 288.879 214.316 312.601 189.558 326.002C177.178 332.704 165.588 336.812 155.517 337.958C145.448 339.105 136.938 337.288 130.647 332.195C124.357 327.101 120.811 319.154 119.839 309.067C118.867 298.977 120.475 286.786 124.456 273.284C132.417 246.281 149.836 214.131 174.84 183.254Z" stroke="url(#paint3_linear_57_1565)"/>
<path d="M175.499 182.454C201.038 152.018 229.273 128.785 254.261 115.818C266.756 109.334 278.416 105.429 288.506 104.458C298.593 103.487 307.07 105.452 313.271 110.655C319.471 115.858 322.878 123.865 323.674 133.967C324.47 144.073 322.649 156.234 318.433 169.665C310.002 196.525 292.025 228.365 266.486 258.802C240.947 289.238 212.712 312.471 187.724 325.438C175.229 331.922 163.569 335.827 153.479 336.798C143.392 337.768 134.915 335.804 128.714 330.601C122.514 325.398 119.107 317.391 118.311 307.288C117.515 297.183 119.336 285.022 123.552 271.591C131.983 244.731 149.96 212.89 175.499 182.454Z" stroke="url(#paint4_linear_57_1565)"/>
<path d="M176.172 181.666C202.238 151.68 230.875 128.944 256.085 116.415C268.691 110.15 280.418 106.448 290.523 105.654C300.626 104.86 309.067 106.972 315.176 112.282C321.285 117.593 324.551 125.658 325.171 135.773C325.79 145.89 323.757 158.018 319.308 171.373C310.409 198.082 291.879 229.604 265.813 259.59C239.747 289.576 211.11 312.312 185.9 324.841C173.294 331.106 161.567 334.808 151.462 335.602C141.359 336.396 132.918 334.284 126.809 328.974C120.7 323.664 117.434 315.598 116.814 305.483C116.194 295.366 118.228 283.238 122.677 269.883C131.576 243.174 150.106 211.652 176.172 181.666Z" stroke="url(#paint5_linear_57_1565)"/>
<path d="M176.859 180.89C203.444 151.364 232.473 129.13 257.899 117.043C270.612 110.999 282.401 107.503 292.519 106.885C302.634 106.267 311.037 108.526 317.053 113.942C323.068 119.358 326.193 127.479 326.636 137.604C327.079 147.731 324.834 159.821 320.152 173.096C310.789 199.646 291.712 230.84 265.126 260.366C238.54 289.892 209.511 312.126 184.086 324.213C171.373 330.257 159.583 333.753 149.466 334.371C139.351 334.989 130.947 332.73 124.932 327.314C118.917 321.898 115.792 313.776 115.349 303.652C114.906 293.525 117.151 281.435 121.833 268.159C131.196 241.61 150.273 210.416 176.859 180.89Z" stroke="url(#paint6_linear_57_1565)"/>
<path d="M177.559 180.126C204.656 151.068 234.068 129.345 259.701 117.703C272.518 111.882 284.366 108.592 294.493 108.151C304.617 107.709 312.98 110.115 318.9 115.635C324.819 121.155 327.802 129.33 328.069 139.46C328.335 149.593 325.879 161.642 320.966 174.834C311.141 201.216 291.522 232.072 264.426 261.13C237.329 290.188 207.916 311.911 182.284 323.553C169.467 329.374 157.618 332.664 147.491 333.105C137.367 333.547 129.004 331.141 123.085 325.621C117.165 320.101 114.182 311.926 113.916 301.796C113.65 291.663 116.105 279.614 121.018 266.422C130.843 240.04 150.462 209.184 177.559 180.126Z" stroke="url(#paint7_linear_57_1565)"/>
<path d="M178.272 179.374C205.872 150.793 235.659 129.587 261.491 118.394C274.408 112.797 286.312 109.715 296.445 109.45C306.575 109.186 314.895 111.737 320.717 117.36C326.54 122.982 329.379 131.208 329.469 141.341C329.558 151.477 326.893 163.482 321.75 176.586C311.466 202.792 291.312 233.302 263.712 261.882C236.112 290.463 206.325 311.669 180.493 322.862C167.577 328.458 155.673 331.541 145.54 331.805C135.409 332.07 127.09 329.519 121.267 323.896C115.445 318.273 112.605 310.048 112.516 299.915C112.426 289.778 115.091 277.774 120.234 264.67C130.518 238.463 150.672 207.954 178.272 179.374Z" stroke="url(#paint8_linear_57_1565)"/>
<path d="M178.999 178.634C207.093 150.54 237.246 129.856 263.269 119.116C276.282 113.746 288.238 110.872 298.374 110.784C308.507 110.696 316.781 113.392 322.504 119.116C328.228 124.839 330.924 133.113 330.836 143.246C330.749 153.383 327.874 165.339 322.504 178.351C311.764 204.374 291.08 234.527 262.986 262.621C234.891 290.716 204.738 311.399 178.716 322.139C165.703 327.51 153.747 330.384 143.611 330.472C133.477 330.559 125.204 327.863 119.48 322.14C113.757 316.416 111.061 308.143 111.149 298.009C111.236 287.873 114.11 275.917 119.481 262.905C130.221 236.882 150.904 206.729 178.999 178.634Z" stroke="url(#paint9_linear_57_1565)"/>
<path d="M179.738 177.908C208.319 150.308 238.828 130.154 265.034 119.87C278.139 114.727 290.143 112.062 300.279 112.151C310.413 112.241 318.638 115.081 324.261 120.903C329.883 126.726 332.434 135.045 332.17 145.175C331.905 155.308 328.823 167.212 323.226 180.129C312.034 205.961 290.827 235.748 262.247 263.348C233.666 290.948 203.157 311.102 176.951 321.386C163.846 326.529 151.842 329.194 141.706 329.105C131.572 329.015 123.347 326.175 117.724 320.353C112.102 314.53 109.55 306.211 109.815 296.081C110.079 285.948 113.162 274.043 118.759 261.127C129.951 235.295 151.158 205.508 179.738 177.908Z" stroke="url(#paint10_linear_57_1565)"/>
<path d="M180.49 177.194C209.548 150.098 240.404 130.479 266.786 120.654C279.978 115.741 292.027 113.285 302.16 113.551C312.291 113.818 320.465 116.801 325.985 122.72C331.505 128.64 333.911 137.003 333.47 147.127C333.028 157.254 329.739 169.102 323.917 181.92C312.276 207.552 290.552 236.964 261.495 264.061C232.437 291.158 201.58 310.777 175.199 320.602C162.007 325.515 149.958 327.97 139.825 327.704C129.694 327.438 121.52 324.455 115.999 318.535C110.479 312.616 108.074 304.253 108.515 294.129C108.956 284.002 112.246 272.153 118.067 259.336C129.709 233.704 151.432 204.291 180.49 177.194Z" stroke="url(#paint11_linear_57_1565)"/>
<path d="M181.254 176.494C210.781 149.909 241.975 130.832 268.524 121.468C281.8 116.786 293.89 114.542 304.016 114.984C314.141 115.427 322.262 118.553 327.678 124.568C333.094 130.583 335.353 138.986 334.735 149.101C334.117 159.219 330.621 171.008 324.577 183.722C312.49 209.147 290.257 238.176 260.73 264.762C231.204 291.347 200.01 310.424 173.461 319.788C160.185 324.47 148.095 326.714 137.968 326.271C127.844 325.828 119.723 322.703 114.307 316.688C108.891 310.673 106.631 302.27 107.249 292.155C107.867 282.037 111.363 270.248 117.407 257.534C129.495 232.109 151.728 203.08 181.254 176.494Z" stroke="url(#paint12_linear_57_1565)"/>
<path d="M182.031 175.807C212.016 149.741 243.538 131.211 270.247 122.313C283.603 117.863 295.73 115.83 305.848 116.449C315.963 117.069 324.028 120.335 329.338 126.444C334.648 132.553 336.761 140.994 335.966 151.097C335.172 161.202 331.471 172.929 325.206 185.535C312.676 210.745 289.94 239.382 259.954 265.448C229.968 291.514 198.446 310.044 171.737 318.943C158.382 323.393 146.255 325.426 136.137 324.806C126.022 324.187 117.957 320.92 112.646 314.811C107.336 308.703 105.224 300.261 106.018 290.158C106.813 280.053 110.514 268.327 116.779 255.72C129.308 230.51 152.045 201.874 182.031 175.807Z" stroke="url(#paint13_linear_57_1565)"/>
<path d="M182.819 175.134C213.255 149.595 245.096 131.618 271.955 123.187C285.387 118.971 297.548 117.15 307.653 117.946C317.755 118.742 325.762 122.149 330.965 128.35C336.168 134.55 338.133 143.027 337.162 153.114C336.192 163.204 332.286 174.864 325.802 187.359C312.835 212.347 289.602 240.583 259.166 266.121C228.73 291.66 196.889 309.637 170.029 318.068C156.598 322.284 144.437 324.106 134.332 323.309C124.229 322.514 116.222 319.107 111.019 312.906C105.816 306.706 103.852 298.229 104.822 288.141C105.793 278.051 109.698 266.391 116.182 253.896C129.15 228.909 152.382 200.673 182.819 175.134Z" stroke="url(#paint14_linear_57_1565)"/>
<path d="M183.619 174.475C214.496 149.471 246.645 132.053 273.648 124.092C287.151 120.111 299.342 118.502 309.432 119.474C319.519 120.447 327.465 123.993 332.559 130.283C337.653 136.573 339.469 145.083 338.323 155.152C337.176 165.224 333.068 176.814 326.367 189.194C312.966 213.951 289.244 241.777 258.366 266.781C227.489 291.785 195.339 309.203 168.336 317.164C154.834 321.145 142.643 322.754 132.553 321.782C122.466 320.809 114.519 317.263 109.426 310.973C104.332 304.683 102.515 296.173 103.662 286.104C104.808 276.032 108.917 264.442 115.618 252.062C129.019 227.305 152.741 199.479 183.619 174.475Z" stroke="url(#paint15_linear_57_1565)"/>
<path d="M184.43 173.83C215.739 149.369 248.187 132.514 275.325 125.025C288.895 121.281 301.112 119.885 311.183 121.033C321.252 122.181 329.136 125.865 334.119 132.244C339.102 138.622 340.77 147.162 339.448 157.21C338.126 167.26 333.816 178.776 326.899 191.037C313.068 215.557 288.864 242.965 257.555 267.426C226.246 291.887 193.797 308.742 166.66 316.23C153.09 319.975 140.872 321.371 130.801 320.223C120.732 319.074 112.849 315.39 107.866 309.012C102.883 302.634 101.215 294.093 102.537 284.046C103.859 273.996 108.169 262.479 115.085 250.218C128.917 225.698 153.121 198.291 184.43 173.83Z" stroke="url(#paint16_linear_57_1565)"/>
<path d="M185.252 173.199C216.983 149.288 249.721 133.002 276.985 125.988C290.619 122.481 302.858 121.299 312.908 122.622C322.955 123.946 330.773 127.767 335.644 134.232C340.515 140.696 342.034 149.264 340.536 159.287C339.039 169.312 334.529 180.752 327.4 192.89C313.142 217.165 288.464 244.146 256.733 268.057C225.002 291.968 192.264 308.254 164.999 315.268C151.366 318.775 139.126 319.957 129.077 318.633C119.029 317.31 111.212 313.489 106.34 307.024C101.469 300.56 99.951 291.992 101.448 281.969C102.945 271.944 107.456 260.504 114.585 248.366C128.842 224.091 153.521 197.11 185.252 173.199Z" stroke="url(#paint17_linear_57_1565)"/>
<path d="M186.085 172.582C218.229 149.229 251.246 133.517 278.628 126.98C292.321 123.711 304.579 122.742 314.604 124.242C324.627 125.74 332.377 129.697 337.134 136.246C341.892 142.794 343.261 151.387 341.589 161.383C339.917 171.38 335.207 182.739 327.867 194.752C313.189 218.774 288.043 245.32 255.899 268.674C223.756 292.027 190.739 307.739 163.356 314.276C149.664 317.545 137.405 318.513 127.38 317.014C117.358 315.515 109.608 311.558 104.85 305.01C100.092 298.462 98.7239 289.868 100.396 279.873C102.068 269.876 106.777 258.516 114.117 246.504C128.796 222.482 153.942 195.936 186.085 172.582Z" stroke="url(#paint18_linear_57_1565)"/>
<path d="M186.929 171.98C219.475 149.191 252.762 134.058 280.254 128C294.001 124.971 306.275 124.216 316.272 125.89C326.267 127.563 333.947 131.655 338.589 138.285C343.232 144.916 344.45 153.532 342.604 163.496C340.758 173.463 335.851 184.738 328.303 196.621C313.207 220.383 287.602 246.486 255.056 269.275C222.509 292.065 189.223 307.198 161.731 313.256C147.983 316.285 135.71 317.04 125.712 315.366C115.717 313.692 108.038 309.601 103.395 302.97C98.7525 296.34 97.5341 287.724 99.3801 277.76C101.227 267.793 106.133 256.517 113.682 244.635C128.777 220.873 154.383 194.769 186.929 171.98Z" stroke="url(#paint19_linear_57_1565)"/>
<path d="M187.783 171.393C220.722 149.176 254.268 134.626 281.862 129.048C295.66 126.259 307.945 125.719 317.911 127.567C327.875 129.415 335.483 133.64 340.009 140.35C344.535 147.061 345.603 155.697 343.583 165.627C341.563 175.561 336.46 186.749 328.706 198.497C313.198 221.993 287.141 247.645 254.202 269.863C221.263 292.08 187.717 306.63 160.123 312.208C146.325 314.996 134.04 315.537 124.074 313.689C114.109 311.841 106.502 307.616 101.976 300.906C97.4499 294.195 96.3821 285.559 98.4016 275.628C100.422 265.695 105.524 254.507 113.279 242.759C128.787 219.263 154.844 193.611 187.783 171.393Z" stroke="url(#paint20_linear_57_1565)"/>
<path d="M188.647 170.821C221.969 149.182 255.763 135.219 283.451 130.124C297.295 127.577 309.588 127.251 319.521 129.273C329.451 131.294 336.983 135.651 341.392 142.44C345.8 149.228 346.717 157.881 344.524 167.775C342.331 177.671 337.034 188.769 329.075 200.38C313.16 223.601 286.659 248.795 253.337 270.434C220.015 292.074 186.221 306.036 158.534 311.131C144.689 313.679 132.397 314.004 122.464 311.983C112.534 309.961 105.001 305.604 100.593 298.816C96.1847 292.028 95.2678 283.374 97.4603 273.48C99.6535 263.584 104.951 252.487 112.909 240.875C128.825 217.654 155.326 192.46 188.647 170.821Z" stroke="url(#paint21_linear_57_1565)"/>
<path d="M189.522 170.264C223.216 149.21 257.249 135.839 285.021 131.228C298.908 128.923 311.204 128.812 321.1 131.006C330.994 133.201 338.449 137.689 342.738 144.553C347.027 151.417 347.793 160.085 345.428 169.939C343.062 179.796 337.572 190.799 329.412 202.27C313.094 225.21 286.157 249.937 252.463 270.991C218.769 292.046 184.736 305.416 156.964 310.027C143.077 312.333 130.781 312.444 120.885 310.249C110.991 308.055 103.536 303.567 99.2469 296.703C94.9576 289.839 94.1919 281.171 96.5568 271.316C98.9223 261.46 104.412 250.457 112.572 238.986C128.891 216.046 155.827 191.319 189.522 170.264Z" stroke="url(#paint22_linear_57_1565)"/>
<path d="M190.405 169.723C224.462 149.259 258.723 136.485 286.571 132.359C300.496 130.296 312.793 130.4 322.649 132.767C332.503 135.134 339.878 139.751 344.047 146.689C348.216 153.627 348.83 162.307 346.294 172.119C343.756 181.932 338.075 192.838 329.716 204.165C313 226.816 285.636 251.07 251.579 271.533C217.523 291.996 183.262 304.771 155.414 308.896C141.488 310.959 129.192 310.856 119.336 308.489C109.482 306.122 102.106 301.505 97.9377 294.566C93.7689 287.628 93.1545 278.948 95.6911 269.137C98.2282 259.323 103.91 248.418 112.268 237.091C128.985 214.439 156.349 190.186 190.405 169.723Z" stroke="url(#paint23_linear_57_1565)"/>
<path d="M191.298 169.197C225.707 149.331 260.186 137.156 288.102 133.517C302.061 131.698 314.353 132.016 324.167 134.555C333.978 137.093 341.271 141.838 345.319 148.848C349.366 155.858 349.828 164.547 347.121 174.313C344.413 184.081 338.542 194.886 329.987 206.065C312.878 228.421 285.095 252.193 250.686 272.059C216.278 291.925 181.799 304.1 153.883 307.738C139.924 309.558 127.631 309.24 117.818 306.701C108.007 304.163 100.713 299.417 96.6659 292.408C92.6189 285.398 92.1561 276.709 94.8635 266.943C97.5715 257.175 103.442 246.37 111.998 235.191C129.107 212.835 156.89 189.062 191.298 169.197Z" stroke="url(#paint24_linear_57_1565)"/>
<path d="M192.201 168.686C226.951 149.424 261.637 137.853 289.612 134.702C303.6 133.126 315.886 133.659 325.653 136.368C335.418 139.077 342.628 143.949 346.552 151.029C350.477 158.108 350.788 166.804 347.91 176.521C345.032 186.24 338.974 196.941 330.224 207.969C312.728 230.023 284.534 253.307 249.784 272.569C215.034 291.832 180.348 303.403 152.373 306.554C138.384 308.129 126.099 307.597 116.331 304.887C106.566 302.178 99.3564 297.306 95.4323 290.227C91.5081 283.148 91.197 274.451 94.0745 264.734C96.9526 255.015 103.011 244.315 111.76 233.286C129.257 211.232 157.451 187.948 192.201 168.686Z" stroke="url(#paint25_linear_57_1565)"/>
<path d="M193.112 168.192C228.192 149.539 263.075 138.575 291.101 135.913C305.115 134.581 317.389 135.328 327.108 138.208C336.824 141.087 343.948 146.084 347.748 153.231C351.548 160.377 351.707 169.078 348.661 178.743C345.613 188.41 339.369 199.004 330.429 209.878C312.55 231.623 283.954 254.411 248.873 273.064C213.792 291.717 178.91 302.681 150.884 305.343C136.87 306.675 124.596 305.928 114.877 303.048C105.16 300.169 98.0367 295.172 94.2367 288.025C90.4367 280.878 90.2774 272.178 93.324 262.513C96.3713 252.845 102.616 242.252 111.556 231.378C129.435 209.633 158.031 186.845 193.112 168.192Z" stroke="url(#paint26_linear_57_1565)"/>
<path d="M194.031 167.713C229.432 149.675 264.501 139.322 292.569 137.149C306.604 136.062 318.863 137.024 328.53 140.072C338.195 143.121 345.23 148.241 348.905 155.453C352.58 162.665 352.587 171.367 349.372 180.977C346.157 190.59 339.728 201.073 330.6 211.789C312.344 233.219 283.355 255.505 247.954 273.543C212.553 291.58 177.484 301.934 149.416 304.107C135.381 305.193 123.122 304.232 113.455 301.183C103.79 298.135 96.7544 293.015 93.0797 285.803C89.405 278.591 89.3976 269.889 92.6124 260.278C95.828 250.665 102.256 240.183 111.385 229.467C129.641 208.036 158.63 185.751 194.031 167.713Z" stroke="url(#paint27_linear_57_1565)"/>
<path d="M194.958 167.25C230.669 149.833 265.913 140.093 294.015 138.411C308.067 137.569 320.307 138.744 329.92 141.961C339.53 145.178 346.475 150.42 350.023 157.695C353.571 164.97 353.427 173.671 350.045 183.224C346.662 192.779 340.052 203.148 330.737 213.703C312.11 234.812 282.737 256.588 247.026 274.005C211.316 291.422 176.072 301.162 147.97 302.845C133.918 303.686 121.677 302.511 112.065 299.294C102.455 296.078 95.51 290.835 91.9618 283.56C88.4135 276.285 88.558 267.585 91.94 258.032C95.3228 248.476 101.933 238.107 111.247 227.552C129.874 206.444 159.248 184.668 194.958 167.25Z" stroke="url(#paint28_linear_57_1565)"/>
<path d="M195.894 166.804C231.903 150.013 267.312 140.89 295.438 139.698C309.503 139.102 321.721 140.49 331.276 143.875C340.828 147.258 347.681 152.621 351.102 159.957C354.522 167.293 354.226 175.989 350.678 185.482C347.129 194.977 340.339 205.229 330.841 215.62C311.849 236.4 282.1 257.66 246.091 274.451C210.082 291.243 174.673 300.366 146.546 301.558C132.482 302.154 120.264 300.766 110.709 297.381C101.156 293.998 94.3039 288.635 90.8832 281.299C87.4624 273.963 87.7587 265.267 91.307 255.774C94.856 246.279 101.646 236.027 111.143 225.636C130.136 204.856 159.885 183.596 195.894 166.804Z" stroke="url(#paint29_linear_57_1565)"/>
<path d="M196.837 166.375C233.134 150.214 268.696 141.71 296.84 141.009C310.912 140.659 323.104 142.26 332.599 145.811C342.091 149.361 348.848 154.843 352.141 162.237C355.433 169.631 354.985 178.321 351.271 187.751C347.557 197.182 340.589 207.314 330.912 217.538C311.56 237.983 281.444 258.721 245.148 274.881C208.851 291.042 173.288 299.546 145.145 300.246C131.072 300.597 118.88 298.996 109.386 295.445C99.8941 291.895 93.1363 286.413 89.8441 279.019C86.5519 271.625 86.9999 262.934 90.7133 253.505C94.4276 244.074 101.396 233.942 111.073 223.718C130.425 203.273 160.541 182.535 196.837 166.375Z" stroke="url(#paint30_linear_57_1565)"/>
<path d="M197.788 165.961C234.361 150.437 270.066 142.555 298.217 142.345C312.294 142.241 324.456 144.054 333.887 147.77C343.316 151.485 349.977 157.084 353.14 164.535C356.302 171.985 355.703 180.666 351.825 190.029C347.947 199.395 340.803 209.403 330.949 219.457C311.243 239.561 280.77 259.77 244.197 275.295C207.624 290.819 171.918 298.701 143.767 298.911C129.69 299.015 117.528 297.202 108.097 293.486C98.6687 289.771 92.0076 284.172 88.8449 276.721C85.6823 269.271 86.2819 260.59 90.1593 251.227C94.0376 241.861 101.181 231.853 111.035 221.799C130.742 201.695 161.215 181.486 197.788 165.961Z" stroke="url(#paint31_linear_57_1565)"/>
<path d="M198.746 165.565C235.584 150.681 271.422 143.423 299.572 143.705C313.649 143.846 325.777 145.872 335.142 149.752C344.504 153.631 351.067 159.345 354.099 166.85C357.131 174.354 356.38 183.024 352.34 192.317C348.298 201.614 340.981 211.496 330.953 221.376C310.899 241.133 280.078 260.808 243.24 275.691C206.401 290.575 170.563 297.833 142.413 297.551C128.336 297.41 116.208 295.384 106.843 291.504C97.4808 287.626 90.9185 281.911 87.8863 274.406C84.8542 266.902 85.6052 258.232 89.6454 248.939C93.6866 239.643 101.004 229.76 111.032 219.88C131.086 200.123 161.907 180.448 198.746 165.565Z" stroke="url(#paint32_linear_57_1565)"/>
<path d="M199.71 165.185C236.802 150.946 272.761 144.315 300.903 145.088C314.975 145.475 327.066 147.712 336.361 151.755C345.655 155.796 352.116 161.624 355.017 169.181C357.918 176.737 357.015 185.392 352.814 194.614C348.611 203.838 341.122 213.592 330.923 223.295C310.527 242.699 279.368 261.833 242.275 276.071C205.182 290.31 169.224 296.941 141.082 296.168C127.01 295.781 114.919 293.544 105.624 289.501C96.3303 285.46 89.8687 279.632 86.968 272.075C84.0673 264.519 84.9695 255.864 89.1713 246.642C93.374 237.418 100.863 227.664 111.062 217.961C131.458 198.557 162.617 179.423 199.71 165.185Z" stroke="url(#paint33_linear_57_1565)"/>
<path d="M200.68 164.822C238.016 151.233 274.085 145.23 302.209 146.494C316.272 147.126 328.322 149.574 337.546 153.778C346.767 157.982 353.126 163.921 355.894 171.527C358.663 179.133 357.609 187.771 353.247 196.918C348.884 206.068 341.226 215.689 330.86 225.213C310.128 244.258 278.64 262.845 241.304 276.434C203.969 290.023 167.9 296.025 139.776 294.761C125.713 294.129 113.662 291.682 104.439 287.477C95.2176 283.274 88.8587 277.334 86.0903 269.728C83.322 262.122 84.3751 253.484 88.7372 244.337C93.1003 235.188 100.758 225.567 111.125 216.043C131.856 196.997 163.345 178.411 200.68 164.822Z" stroke="url(#paint34_linear_57_1565)"/>
<path d="M201.658 164.476C239.225 151.54 275.393 146.168 303.49 147.923C317.54 148.8 329.546 151.458 338.695 155.823C347.841 160.186 354.095 166.236 356.731 173.889C359.366 181.543 358.162 190.161 353.641 199.23C349.119 208.302 341.294 217.788 330.763 227.13C309.702 245.811 277.894 263.845 240.327 276.78C202.76 289.715 166.592 295.088 138.495 293.333C124.445 292.456 112.439 289.798 103.29 285.433C94.1436 281.07 87.8893 275.02 85.2541 267.366C82.6189 259.713 83.8226 251.095 88.3436 242.026C92.8657 232.954 100.69 223.468 111.222 214.126C132.282 195.445 164.091 177.411 201.658 164.476Z" stroke="url(#paint35_linear_57_1565)"/>
<path d="M202.641 164.147C240.428 151.869 276.684 147.129 304.746 149.374C318.779 150.496 330.737 153.363 339.808 157.887C348.877 162.409 355.024 168.568 357.526 176.266C360.027 183.964 358.673 192.559 353.994 201.549C349.315 210.54 341.326 219.888 330.633 229.044C309.249 247.355 277.131 264.831 239.344 277.109C201.557 289.387 165.301 294.127 137.238 291.882C123.206 290.76 111.248 287.893 102.177 283.369C93.1081 278.846 86.9603 272.688 84.4591 264.99C81.9579 257.292 83.3118 248.697 87.9904 239.707C92.6702 230.716 100.659 221.368 111.352 212.212C132.735 193.901 164.854 176.425 202.641 164.147Z" stroke="url(#paint36_linear_57_1565)"/>
<path d="M203.629 163.835C241.625 152.219 277.958 148.112 305.977 150.846C319.988 152.214 331.894 155.289 340.885 159.97C349.873 164.65 355.913 170.915 358.279 178.655C360.646 186.396 359.142 194.966 354.307 203.873C349.471 212.781 341.32 221.989 330.469 230.957C308.77 248.891 276.351 265.804 238.356 277.421C200.36 289.037 164.026 293.144 136.008 290.41C121.997 289.042 110.091 285.967 101.1 281.286C92.1115 276.606 86.0721 270.341 83.7056 262.601C81.3391 254.86 82.8429 246.29 87.6777 237.383C92.5137 228.475 100.665 219.268 111.515 210.299C133.215 192.365 165.634 175.452 203.629 163.835Z" stroke="url(#paint37_linear_57_1565)"/>
<path d="M204.623 163.541C242.815 152.589 279.215 149.117 307.182 152.34C321.167 153.952 333.017 157.234 341.925 162.072C350.83 166.908 356.76 173.277 358.991 181.057C361.222 188.838 359.569 197.381 354.579 206.202C349.588 215.025 341.278 224.088 330.272 232.866C308.263 250.419 275.554 266.763 237.362 277.715C199.169 288.666 162.769 292.138 134.802 288.916C120.818 287.304 108.967 284.022 100.06 279.184C91.154 274.348 85.2249 267.979 82.9939 260.198C80.7628 252.418 82.4159 243.874 87.4054 235.054C92.3961 226.231 100.706 217.168 111.712 208.39C133.722 190.837 166.43 174.492 204.623 163.541Z" stroke="url(#paint38_linear_57_1565)"/>
<path d="M205.622 163.264C244 152.98 280.455 150.144 308.361 153.855C322.315 155.71 334.107 159.199 342.929 164.191C351.749 169.182 357.566 175.654 359.66 183.472C361.755 191.29 359.953 199.803 354.811 208.535C349.667 217.27 341.2 226.187 330.042 234.771C307.73 251.937 274.741 267.709 236.363 277.992C197.985 288.275 161.531 291.111 133.624 287.401C119.67 285.546 107.878 282.057 99.0564 277.065C90.2365 272.074 84.4195 265.602 82.3246 257.784C80.2296 249.965 82.0316 241.452 87.1743 232.72C92.3182 223.986 100.785 215.069 111.943 206.485C134.255 189.318 167.244 173.547 205.622 163.264Z" stroke="url(#paint39_linear_57_1565)"/>
<path d="M206.625 163.004C245.176 153.392 281.675 151.193 309.513 155.39C323.433 157.488 335.161 161.182 343.895 166.328C352.626 171.472 358.329 178.044 360.288 185.898C362.246 193.751 360.295 202.232 355.001 210.873C349.706 219.516 341.084 228.284 329.779 236.672C307.17 253.446 273.911 268.639 235.359 278.251C196.808 287.863 160.309 290.063 132.472 285.866C118.552 283.767 106.823 280.073 98.0897 274.928C89.3583 269.784 83.6551 263.212 81.697 255.358C79.7388 247.504 81.689 239.024 86.9834 230.383C92.2789 221.74 100.9 212.972 112.206 204.584C134.815 187.809 168.074 172.616 206.625 163.004Z" stroke="url(#paint40_linear_57_1565)"/>
<path d="M207.633 162.762C246.346 153.824 282.878 152.262 310.638 156.944C324.519 159.285 336.181 163.184 344.824 168.481C353.464 173.776 359.052 180.447 360.872 188.334C362.693 196.22 360.595 204.665 355.151 213.213C349.705 221.762 340.932 230.378 329.482 238.568C306.584 254.945 273.065 269.556 234.351 278.493C195.638 287.431 159.107 288.993 131.347 284.311C117.465 281.97 105.803 278.072 97.1606 272.775C88.5204 267.479 82.9327 260.808 81.112 252.922C79.2912 245.035 81.3891 236.59 86.8334 228.042C92.279 219.493 101.052 210.877 112.502 202.687C135.4 186.31 168.92 171.7 207.633 162.762Z" stroke="url(#paint41_linear_57_1565)"/>
<path d="M208.645 162.538C247.508 154.277 284.062 153.353 311.736 158.519C325.574 161.102 337.167 165.203 345.715 170.65C354.262 176.096 359.732 182.863 361.415 190.78C363.098 198.697 360.853 207.104 355.26 215.556C349.666 224.009 340.744 232.47 329.153 240.459C305.972 256.434 272.203 270.457 233.34 278.718C194.476 286.978 157.923 287.903 130.249 282.737C116.411 280.154 104.818 276.053 96.2696 270.606C87.7231 265.16 82.2527 258.393 80.5698 250.476C78.887 242.558 81.132 234.151 86.7246 225.7C92.3186 217.247 101.241 208.785 112.832 200.797C136.012 184.822 169.782 170.799 208.645 162.538Z" stroke="url(#paint42_linear_57_1565)"/>
<path d="M209.661 162.331C248.662 154.75 285.226 154.464 312.806 160.112C326.597 162.936 338.116 167.239 346.568 172.834C355.018 178.428 360.37 185.29 361.914 193.235C363.459 201.181 361.067 209.547 355.328 217.9C349.587 226.254 340.519 234.559 328.79 242.343C305.334 257.912 271.326 271.343 232.324 278.924C193.322 286.506 156.758 286.792 129.179 281.144C115.388 278.32 103.868 274.017 95.4162 268.421C86.9661 262.827 81.6146 255.966 80.0702 248.02C78.5257 240.075 80.9171 231.708 86.6564 223.356C92.3971 215.002 101.466 206.697 113.195 198.912C136.65 183.344 170.659 169.912 209.661 162.331Z" stroke="url(#paint43_linear_57_1565)"/>
<path d="M210.68 162.142C249.808 155.243 286.371 155.595 313.848 161.723C327.588 164.788 339.03 169.291 347.383 175.033C355.735 180.774 360.965 187.728 362.371 195.699C363.776 203.67 361.239 211.994 355.355 220.245C349.47 228.497 340.257 236.642 328.395 244.221C304.671 259.378 270.433 272.214 231.305 279.113C192.177 286.013 155.614 285.661 128.137 279.532C114.397 276.468 102.955 271.964 94.6013 266.222C86.2501 260.482 81.0192 253.528 79.6137 245.557C78.2081 237.585 80.7452 229.262 86.6293 221.011C92.5149 212.758 101.727 204.613 113.59 197.034C137.314 181.878 171.552 169.042 210.68 162.142Z" stroke="url(#paint44_linear_57_1565)"/>
<path d="M211.702 161.971C250.944 155.756 287.496 156.746 314.862 163.353C328.546 166.657 339.908 171.359 348.16 177.246C356.41 183.132 361.518 190.176 362.785 198.17C364.051 206.165 361.369 214.443 355.341 222.59C349.313 230.738 339.96 238.722 327.966 246.092C303.982 260.832 269.525 273.069 230.283 279.284C191.04 285.5 154.489 284.51 127.123 277.903C113.439 274.599 102.077 269.897 93.8249 264.01C85.5751 258.124 80.4664 251.08 79.2002 243.086C77.934 235.091 80.6159 226.813 86.6432 218.666C92.6719 210.518 102.025 202.534 114.018 195.164C138.003 180.424 172.46 168.187 211.702 161.971Z" stroke="url(#paint45_linear_57_1565)"/>
<path d="M212.727 161.818C252.072 156.289 288.601 157.916 315.847 165C329.471 168.542 340.75 173.442 348.897 179.472C357.043 185.501 362.028 192.633 363.155 200.648C364.281 208.664 361.455 216.894 355.287 224.934C349.117 232.976 339.626 240.795 327.506 247.955C303.267 262.275 268.602 273.908 229.257 279.438C189.912 284.967 153.384 283.339 126.137 276.256C112.513 272.714 101.235 267.814 93.087 261.784C84.9412 255.755 79.9562 248.623 78.8297 240.608C77.7032 232.592 80.5292 224.362 86.6977 216.322C92.8678 208.279 102.359 200.461 114.479 193.3C138.717 178.981 173.382 167.348 212.727 161.818Z" stroke="url(#paint46_linear_57_1565)"/>
<path d="M213.755 161.683C253.19 156.841 289.685 159.106 316.804 166.664C330.364 170.443 341.555 175.539 349.597 181.711C357.636 187.881 362.496 195.099 363.482 203.132C364.469 211.166 361.499 219.346 355.191 227.277C348.882 235.211 339.256 242.863 327.013 249.81C302.528 263.704 267.666 274.731 228.23 279.573C188.795 284.415 152.3 282.15 125.181 274.592C111.621 270.813 100.43 265.717 92.3885 259.545C84.3492 253.375 79.4894 246.157 78.503 238.124C77.5165 230.09 80.4857 221.91 86.7937 213.979C93.1031 206.045 102.729 198.393 114.972 191.446C139.457 177.552 174.32 166.525 213.755 161.683Z" stroke="url(#paint47_linear_57_1565)"/>
<path d="M214.785 161.566C254.299 157.413 290.748 160.314 317.731 168.344C331.223 172.36 342.324 177.65 350.256 183.961C358.187 190.27 362.92 197.572 363.766 205.622C364.612 213.672 361.5 221.798 355.055 229.618C348.608 237.44 338.85 244.923 326.487 251.656C301.764 265.121 266.714 275.537 227.2 279.69C187.686 283.843 151.236 280.942 124.254 272.912C110.762 268.896 99.6612 263.606 91.7288 257.295C83.7984 250.986 79.0653 243.684 78.2192 235.634C77.3732 227.584 80.4846 219.458 86.93 211.638C93.377 203.816 103.135 196.333 115.498 189.6C140.221 176.135 175.271 165.719 214.785 161.566Z" stroke="url(#paint48_linear_57_1565)"/>
<path d="M215.817 161.466C255.397 158.004 291.791 161.541 318.629 170.041C332.049 174.291 343.055 179.774 350.876 186.223C358.696 192.669 363.3 200.053 364.006 208.116C364.711 216.179 361.459 224.25 354.878 231.957C348.295 239.665 338.408 246.976 325.93 253.493C300.975 266.524 265.749 276.327 226.169 279.79C186.588 283.253 150.195 279.715 123.356 271.215C109.936 266.965 98.9297 261.482 91.1087 255.034C83.2896 248.587 78.6847 241.204 77.9792 233.14C77.2738 225.077 80.5266 217.006 87.1075 209.299C93.69 201.591 103.577 194.28 116.055 187.764C141.01 174.733 176.236 164.929 215.817 161.466Z" stroke="url(#paint49_linear_57_1565)"/>
<path d="M216.85 161.385C256.484 158.614 292.811 162.786 319.497 171.752C332.841 176.236 343.75 181.911 351.457 188.495C359.162 195.077 363.638 202.539 364.202 210.614C364.767 218.688 361.374 226.701 354.659 234.292C347.943 241.884 337.93 249.022 325.34 255.319C300.162 267.913 264.77 277.1 225.135 279.871C185.5 282.643 149.174 278.471 122.488 269.504C109.144 265.02 98.2351 259.345 90.5278 252.761C82.8224 246.179 78.347 238.717 77.7824 230.642C77.2178 222.568 80.611 214.555 87.3254 206.965C94.0414 199.372 104.055 192.235 116.645 185.937C141.823 173.344 177.215 164.157 216.85 161.385Z" stroke="url(#paint50_linear_57_1565)"/>
<path d="M217.884 161.322C257.561 159.242 293.809 164.047 320.334 173.479C333.598 178.195 344.407 184.059 351.998 190.776C359.587 197.492 363.932 205.031 364.355 213.114C364.779 221.198 361.246 229.15 354.4 236.622C347.553 244.096 337.417 251.058 324.719 257.135C299.325 269.287 263.778 277.855 224.1 279.934C184.423 282.013 148.175 277.208 121.65 267.777C108.386 263.061 97.5781 257.197 89.9869 250.479C82.3975 243.764 78.0531 236.224 77.6294 228.141C77.2058 220.058 80.7383 212.106 87.5842 204.634C94.4317 197.16 104.568 190.198 117.266 184.121C142.66 171.969 178.207 163.401 217.884 161.322Z" stroke="url(#paint51_linear_57_1565)"/>
<path d="M218.92 161.277C258.627 159.89 294.786 165.327 321.142 175.22C334.322 180.167 345.026 186.219 352.499 193.067C359.97 199.914 364.182 207.529 364.465 215.618C364.747 223.707 361.076 231.597 354.101 238.948C347.124 246.301 336.868 253.085 324.066 258.939C298.464 270.647 262.772 278.593 223.065 279.98C183.358 281.366 147.199 275.929 120.843 266.036C107.663 261.089 96.9588 255.037 89.4859 248.189C82.0149 241.342 77.8027 233.727 77.5202 225.638C77.2378 217.549 80.9085 209.659 87.8837 202.308C94.8606 194.955 105.117 188.171 117.919 182.317C143.521 170.609 179.212 162.663 218.92 161.277Z" stroke="url(#paint52_linear_57_1565)"/>
<path d="M219.956 161.249C259.681 160.556 295.74 166.623 321.92 176.974C335.011 182.151 345.608 188.388 352.96 195.366C360.31 202.343 364.389 210.029 364.53 218.122C364.671 226.215 360.864 234.039 353.761 241.268C346.657 248.499 336.284 255.102 323.382 260.732C297.579 271.991 261.754 279.313 222.029 280.006C182.303 280.7 146.245 274.632 120.065 264.281C106.974 259.105 96.3771 252.867 89.0249 245.889C81.6745 238.913 77.5959 231.226 77.4546 223.133C77.3134 215.04 81.1213 207.216 88.2237 199.987C95.3279 192.757 105.701 186.153 118.603 180.523C144.406 169.265 180.23 161.943 219.956 161.249Z" stroke="url(#paint53_linear_57_1565)"/>
<path d="M220.992 161.24C260.724 161.24 296.671 167.936 322.666 178.743C335.665 184.146 346.151 190.568 353.381 197.674C360.608 204.777 364.552 212.534 364.552 220.628C364.552 228.722 360.608 236.479 353.381 243.582C346.151 250.688 335.665 257.109 322.666 262.513C296.671 273.32 260.724 280.016 220.992 280.016C181.261 280.016 145.314 273.32 119.319 262.513C106.32 257.109 95.8334 250.688 88.6041 243.582C81.3766 236.479 77.4327 228.722 77.4327 220.628C77.4327 212.534 81.3766 204.777 88.6041 197.674C95.8334 190.568 106.32 184.146 119.319 178.743C145.314 167.936 181.261 161.24 220.992 161.24Z" stroke="url(#paint54_linear_57_1565)"/>
<path d="M222.029 161.249C261.754 161.943 297.579 169.265 323.382 180.524C336.284 186.153 346.657 192.757 353.761 199.988C360.864 207.216 364.671 215.041 364.53 223.134C364.389 231.226 360.31 238.913 352.96 245.889C345.608 252.868 335.011 259.105 321.92 264.281C295.74 274.633 259.681 280.7 219.956 280.007C180.23 279.313 144.406 271.991 118.603 260.733C105.701 255.103 95.3279 248.499 88.2237 241.268C81.1213 234.04 77.3134 226.216 77.4547 218.123C77.5959 210.03 81.6746 202.343 89.025 195.367C96.3771 188.389 106.974 182.151 120.065 176.975C146.245 166.623 182.303 160.556 222.029 161.249Z" stroke="url(#paint55_linear_57_1565)"/>
<path d="M223.065 161.277C262.772 162.663 298.464 170.609 324.066 182.317C336.868 188.171 347.124 194.955 354.101 202.308C361.076 209.66 364.747 217.549 364.465 225.638C364.182 233.727 359.97 241.342 352.499 248.189C345.026 255.037 334.322 261.089 321.142 266.036C294.786 275.929 258.627 281.366 218.92 279.98C179.212 278.593 143.521 270.647 117.919 258.939C105.117 253.085 94.8607 246.302 87.8838 238.948C80.9086 231.597 77.2378 223.707 77.5203 215.618C77.8028 207.529 82.0149 199.914 89.486 193.067C96.9588 186.219 107.663 180.167 120.843 175.22C147.199 165.327 183.358 159.89 223.065 161.277Z" stroke="url(#paint56_linear_57_1565)"/>
<path d="M224.1 161.321C263.778 163.401 299.325 171.969 324.719 184.121C337.417 190.198 347.553 197.159 354.4 204.633C361.246 212.106 364.779 220.058 364.355 228.141C363.932 236.224 359.587 243.764 351.998 250.479C344.407 257.197 333.598 263.061 320.334 267.777C293.809 277.208 257.561 282.013 217.884 279.934C178.207 277.855 142.66 269.287 117.266 257.134C104.568 251.058 94.4317 244.096 87.5842 236.622C80.7383 229.15 77.2058 221.197 77.6294 213.114C78.0531 205.031 82.3975 197.492 89.9869 190.776C97.5781 184.059 108.386 178.195 121.65 173.479C148.175 164.047 184.423 159.242 224.1 161.321Z" stroke="url(#paint57_linear_57_1565)"/>
<path d="M225.135 161.385C264.77 164.157 300.162 173.344 325.34 185.937C337.93 192.235 347.943 199.372 354.659 206.965C361.374 214.555 364.767 222.568 364.202 230.642C363.638 238.717 359.162 246.179 351.457 252.762C343.75 259.345 332.841 265.02 319.497 269.504C292.811 278.471 256.485 282.643 216.85 279.871C177.215 277.1 141.823 267.913 116.645 255.319C104.055 249.022 94.0415 241.884 87.3255 234.292C80.6111 226.701 77.2179 218.688 77.7825 210.614C78.3472 202.539 82.8225 195.077 90.5279 188.495C98.2352 181.911 109.144 176.236 122.488 171.752C149.174 162.786 185.5 158.614 225.135 161.385Z" stroke="url(#paint58_linear_57_1565)"/>
<path d="M226.168 161.466C265.749 164.929 300.975 174.732 325.93 187.764C338.408 194.28 348.295 201.591 354.877 209.299C361.458 217.006 364.711 225.077 364.006 233.14C363.3 241.203 358.695 248.587 350.876 255.033C343.055 261.482 332.049 266.965 318.629 271.215C291.79 279.715 255.397 283.253 215.816 279.79C176.236 276.327 141.01 266.524 116.055 253.492C103.577 246.976 93.6898 239.665 87.1073 231.957C80.5264 224.25 77.2735 216.179 77.979 208.116C78.6845 200.053 83.2893 192.669 91.1085 186.223C98.9295 179.774 109.936 174.291 123.356 170.041C150.194 161.541 186.588 158.004 226.168 161.466Z" stroke="url(#paint59_linear_57_1565)"/>
<path d="M227.2 161.566C266.714 165.719 301.764 176.135 326.487 189.6C338.85 196.333 348.608 203.816 355.055 211.638C361.5 219.458 364.612 227.584 363.766 235.634C362.92 243.684 358.187 250.986 350.256 257.295C342.324 263.606 331.223 268.896 317.731 272.912C290.748 280.942 254.299 283.843 214.785 279.69C175.271 275.537 140.221 265.121 115.498 251.656C103.135 244.923 93.377 237.44 86.9301 229.618C80.4847 221.798 77.3732 213.672 78.2193 205.622C79.0653 197.572 83.7984 190.27 91.7289 183.961C99.6612 177.65 110.762 172.36 124.254 168.344C151.236 160.314 187.686 157.412 227.2 161.566Z" stroke="url(#paint60_linear_57_1565)"/>
<path d="M228.23 161.683C267.665 166.525 302.528 177.552 327.013 191.446C339.256 198.393 348.882 206.045 355.191 213.979C361.499 221.91 364.468 230.09 363.482 238.123C362.496 246.157 357.636 253.375 349.596 259.545C341.555 265.717 330.364 270.813 316.804 274.592C289.685 282.15 253.19 284.415 213.755 279.573C174.319 274.731 139.457 263.704 114.972 249.81C102.729 242.862 93.103 235.211 86.7936 227.277C80.4856 219.346 77.5164 211.166 78.5029 203.132C79.4893 195.099 84.3491 187.88 92.3884 181.711C100.43 175.539 111.621 170.443 125.181 166.664C152.3 159.106 188.795 156.841 228.23 161.683Z" stroke="url(#paint61_linear_57_1565)"/>
<path d="M229.258 161.818C268.603 167.348 303.268 178.981 327.506 193.301C339.626 200.461 349.117 208.279 355.287 216.322C361.456 224.362 364.282 232.592 363.155 240.608C362.029 248.623 357.044 255.755 348.898 261.784C340.75 267.814 329.472 272.714 315.847 276.256C288.601 283.339 252.072 284.967 212.727 279.438C173.382 273.908 138.717 262.275 114.479 247.955C102.359 240.795 92.8681 232.976 86.6981 224.934C80.5295 216.894 77.7035 208.664 78.83 200.648C79.9565 192.633 84.9415 185.501 93.0873 179.472C101.235 173.442 112.513 168.542 126.138 165C153.384 157.916 189.913 156.289 229.258 161.818Z" stroke="url(#paint62_linear_57_1565)"/>
<path d="M230.283 161.971C269.525 168.187 303.982 180.423 327.966 195.163C339.96 202.534 349.313 210.517 355.341 218.666C361.369 226.813 364.051 235.091 362.784 243.085C361.518 251.08 356.41 258.124 348.16 264.01C339.908 269.897 328.546 274.599 314.862 277.903C287.496 284.51 250.944 285.5 211.702 279.284C172.46 273.069 138.003 260.832 114.018 246.092C102.025 238.721 92.6718 230.738 86.6431 222.589C80.6158 214.443 77.9339 206.165 79.2001 198.17C80.4663 190.176 85.575 183.131 93.8248 177.246C102.077 171.359 113.439 166.657 127.123 163.353C154.488 156.746 191.04 155.756 230.283 161.971Z" stroke="url(#paint63_linear_57_1565)"/>
<path d="M231.305 162.143C270.433 169.042 304.671 181.878 328.395 197.034C340.258 204.613 349.47 212.759 355.355 221.011C361.239 229.262 363.777 237.586 362.371 245.557C360.965 253.528 355.735 260.482 347.383 266.223C339.03 271.965 327.588 276.468 313.848 279.532C286.371 285.661 249.808 286.013 210.68 279.113C171.552 272.214 137.314 259.378 113.59 244.221C101.727 236.643 92.515 228.497 86.6294 220.245C80.7452 211.994 78.2082 203.67 79.6137 195.699C81.0192 187.728 86.2501 180.774 94.6014 175.033C102.955 169.291 114.397 164.788 128.137 161.724C155.614 155.595 192.177 155.243 231.305 162.143Z" stroke="url(#paint64_linear_57_1565)"/>
<path d="M232.324 162.331C271.326 169.913 305.334 183.344 328.79 198.913C340.519 206.697 349.588 215.002 355.328 223.356C361.068 231.708 363.459 240.075 361.914 248.02C360.37 255.966 355.019 262.827 346.568 268.422C338.116 274.017 326.597 278.32 312.806 281.144C285.226 286.792 248.662 286.506 209.661 278.925C170.659 271.343 136.65 257.912 113.195 242.343C101.466 234.559 92.3973 226.254 86.6566 217.9C80.9173 209.548 78.5259 201.181 80.0704 193.236C81.6148 185.29 86.9663 178.429 95.4164 172.834C103.869 167.239 115.388 162.936 129.179 160.112C156.759 154.464 193.323 154.75 232.324 162.331Z" stroke="url(#paint65_linear_57_1565)"/>
<path d="M233.34 162.538C272.203 170.799 305.972 184.822 329.153 200.797C340.744 208.786 349.666 217.247 355.26 225.7C360.853 234.151 363.098 242.559 361.415 250.476C359.732 258.393 354.262 265.16 345.715 270.606C337.167 276.053 325.574 280.154 311.736 282.737C284.062 287.903 247.509 286.979 208.645 278.718C169.782 270.457 136.013 256.434 112.832 240.459C101.241 232.471 92.3189 224.009 86.7249 215.556C81.1322 207.105 78.8872 198.698 80.5701 190.78C82.2529 182.863 87.7233 176.096 96.2698 170.65C104.818 165.203 116.411 161.102 130.249 158.519C157.923 153.353 194.477 154.278 233.34 162.538Z" stroke="url(#paint66_linear_57_1565)"/>
<path d="M234.352 162.763C273.065 171.7 306.584 186.311 329.482 202.688C340.932 210.877 349.705 219.493 355.151 228.043C360.595 236.59 362.693 245.035 360.873 252.922C359.052 260.809 353.464 267.479 344.824 272.775C336.182 278.072 324.519 281.97 310.638 284.311C282.878 288.993 246.346 287.431 207.633 278.494C168.92 269.556 135.401 254.946 112.503 238.568C101.053 230.379 92.2793 221.763 86.8336 213.213C81.3893 204.666 79.2914 196.221 81.1122 188.334C82.933 180.447 88.5206 173.777 97.1609 168.481C105.803 163.184 117.466 159.286 131.347 156.945C159.107 152.263 195.638 153.825 234.352 162.763Z" stroke="url(#paint67_linear_57_1565)"/>
<path d="M235.36 163.004C273.911 172.616 307.17 187.809 329.779 204.584C341.084 212.972 349.706 221.74 355.001 230.383C360.296 239.024 362.246 247.504 360.288 255.358C358.329 263.212 352.626 269.784 343.895 274.928C335.161 280.073 323.433 283.768 309.513 285.866C281.675 290.063 245.177 287.863 206.625 278.252C168.074 268.64 134.815 253.446 112.206 236.672C100.901 228.284 92.279 219.516 86.9834 210.873C81.6891 202.232 79.7389 193.751 81.697 185.898C83.6552 178.044 89.3584 171.472 98.0898 166.328C106.823 161.182 118.552 157.488 132.472 155.39C160.309 151.193 196.808 153.392 235.36 163.004Z" stroke="url(#paint68_linear_57_1565)"/>
<path d="M236.363 163.264C274.741 173.547 307.73 189.319 330.042 206.485C341.2 215.069 349.667 223.986 354.811 232.72C359.953 241.453 361.755 249.966 359.66 257.784C357.565 265.602 351.748 272.074 342.929 277.065C334.107 282.057 322.315 285.546 308.361 287.401C280.454 291.111 244 288.275 205.622 277.992C167.244 267.709 134.255 251.937 111.943 234.771C100.785 226.187 92.3181 217.27 87.1742 208.536C82.0315 199.803 80.2295 191.29 82.3245 183.472C84.4194 175.654 90.2364 169.182 99.0562 164.191C107.878 159.199 119.67 155.71 133.624 153.855C161.53 150.145 197.985 152.981 236.363 163.264Z" stroke="url(#paint69_linear_57_1565)"/>
<path d="M237.362 163.541C275.554 174.492 308.263 190.837 330.272 208.39C341.278 217.168 349.588 226.231 354.579 235.054C359.569 243.874 361.222 252.418 358.991 260.198C356.76 267.979 350.831 274.348 341.925 279.184C333.017 284.022 321.167 287.304 307.182 288.916C279.215 292.138 242.815 288.666 204.623 277.715C166.43 266.763 133.722 250.419 111.712 232.865C100.707 224.088 92.3963 215.025 87.4056 206.202C82.416 197.381 80.763 188.838 82.994 181.057C85.2251 173.277 91.1542 166.908 100.06 162.071C108.967 157.234 120.818 153.952 134.803 152.34C162.77 149.117 199.169 152.589 237.362 163.541Z" stroke="url(#paint70_linear_57_1565)"/>
<path d="M238.356 163.835C276.351 175.452 308.769 192.365 330.469 210.299C341.32 219.267 349.471 228.475 354.307 237.383C359.142 246.289 360.646 254.86 358.279 262.601C355.913 270.341 349.873 276.606 340.885 281.286C331.894 285.967 319.988 289.042 305.977 290.409C277.958 293.144 241.624 289.037 203.629 277.421C165.634 265.804 133.215 248.891 111.515 230.956C100.664 221.988 92.5135 212.781 87.6776 203.873C82.8427 194.966 81.339 186.396 83.7055 178.655C86.072 170.915 92.1114 164.65 101.1 159.97C110.091 155.289 121.997 152.213 136.007 150.846C164.026 148.112 200.36 152.219 238.356 163.835Z" stroke="url(#paint71_linear_57_1565)"/>
<path d="M239.344 164.147C277.131 176.425 309.25 193.901 330.633 212.212C341.326 221.368 349.315 230.716 353.994 239.707C358.673 248.697 360.027 257.292 357.526 264.99C355.025 272.688 348.877 278.847 339.808 283.369C330.737 287.893 318.779 290.76 304.747 291.882C276.684 294.127 240.428 289.387 202.641 277.109C164.854 264.831 132.735 247.355 111.352 229.044C100.659 219.888 92.6702 210.54 87.9905 201.549C83.3118 192.559 81.9579 183.964 84.4591 176.266C86.9604 168.568 93.1081 162.409 102.177 157.887C111.248 153.363 123.206 150.496 137.238 149.374C165.301 147.129 201.557 151.869 239.344 164.147Z" stroke="url(#paint72_linear_57_1565)"/>
<path d="M240.327 164.476C277.894 177.411 309.702 195.445 330.763 214.126C341.294 223.468 349.119 232.954 353.641 242.025C358.162 251.095 359.366 259.713 356.731 267.366C354.095 275.02 347.841 281.07 338.695 285.433C329.546 289.798 317.54 292.456 303.49 293.333C275.393 295.088 239.224 289.715 201.658 276.78C164.091 263.845 132.282 245.811 111.221 227.13C100.69 217.788 92.8656 208.302 88.3435 199.23C83.8225 190.161 82.6188 181.543 85.254 173.889C87.8892 166.236 94.1435 160.186 103.29 155.823C112.439 151.458 124.445 148.8 138.494 147.923C166.592 146.168 202.76 151.54 240.327 164.476Z" stroke="url(#paint73_linear_57_1565)"/>
<path d="M241.304 164.822C278.64 178.411 310.128 196.997 330.86 216.043C341.227 225.567 348.884 235.188 353.247 244.337C357.61 253.484 358.663 262.122 355.894 269.728C353.126 277.334 346.767 283.274 337.546 287.477C328.322 291.682 316.272 294.13 302.209 294.762C274.085 296.026 238.016 290.023 200.681 276.434C163.345 262.845 131.856 244.259 111.125 225.213C100.758 215.689 93.1004 206.068 88.7373 196.918C84.3752 187.771 83.3221 179.134 86.0904 171.528C88.8588 163.922 95.2177 157.982 104.439 153.778C113.662 149.574 125.713 147.126 139.776 146.494C167.9 145.23 203.969 151.233 241.304 164.822Z" stroke="url(#paint74_linear_57_1565)"/>
<path d="M242.275 165.185C279.368 179.423 310.527 198.557 330.923 217.961C341.122 227.664 348.611 237.418 352.813 246.642C357.015 255.864 357.917 264.519 355.017 272.075C352.116 279.632 345.654 285.46 336.361 289.501C327.066 293.544 314.974 295.781 300.902 296.168C272.761 296.941 236.802 290.31 199.71 276.071C162.617 261.833 131.457 242.699 111.061 223.295C100.863 213.592 93.3738 203.838 89.1711 194.614C84.9693 185.392 84.0671 176.737 86.9678 169.181C89.8685 161.624 96.3301 155.796 105.623 151.755C114.919 147.712 127.01 145.475 141.082 145.088C169.224 144.315 205.182 150.946 242.275 165.185Z" stroke="url(#paint75_linear_57_1565)"/>
<path d="M243.239 165.565C280.078 180.448 310.899 200.122 330.953 219.88C340.981 229.76 348.298 239.642 352.34 248.938C356.38 258.232 357.131 266.901 354.099 274.406C351.067 281.911 344.504 287.625 335.142 291.504C325.777 295.384 313.649 297.41 299.572 297.551C271.421 297.832 235.584 290.575 198.745 275.691C161.907 260.807 131.086 241.133 111.032 221.376C101.004 211.496 93.6865 201.613 89.6454 192.317C85.6052 183.023 84.8542 174.354 87.8863 166.849C90.9184 159.345 97.4808 153.63 106.843 149.751C116.208 145.872 128.336 143.846 142.413 143.705C170.563 143.423 206.401 150.681 243.239 165.565Z" stroke="url(#paint76_linear_57_1565)"/>
<path d="M244.197 165.961C280.77 181.486 311.243 201.695 330.95 221.799C340.804 231.853 347.947 241.861 351.826 251.227C355.703 260.59 356.303 269.271 353.14 276.721C349.977 284.172 343.316 289.771 333.888 293.486C324.457 297.202 312.295 299.015 298.218 298.911C270.067 298.701 234.361 290.819 197.788 275.295C161.215 259.77 130.742 239.561 111.036 219.457C101.182 209.403 94.038 199.395 90.1597 190.029C86.2823 180.666 85.6827 171.986 88.8453 164.535C92.008 157.084 98.6691 151.485 108.098 147.77C117.529 144.054 129.691 142.241 143.767 142.345C171.919 142.555 207.624 150.437 244.197 165.961Z" stroke="url(#paint77_linear_57_1565)"/>
<path d="M245.148 166.375C281.444 182.535 311.56 203.273 330.912 223.718C340.589 233.942 347.557 244.074 351.272 253.505C354.985 262.934 355.433 271.624 352.141 279.019C348.849 286.413 342.091 291.895 332.599 295.445C323.104 298.996 310.913 300.597 296.84 300.246C268.696 299.545 233.134 291.042 196.837 274.881C160.541 258.721 130.425 237.983 111.073 217.538C101.396 207.314 94.4277 197.182 90.7134 187.751C87 178.321 86.552 169.631 89.8442 162.237C93.1364 154.843 99.8942 149.361 109.386 145.811C118.88 142.26 131.072 140.659 145.145 141.009C173.289 141.71 208.851 150.214 245.148 166.375Z" stroke="url(#paint78_linear_57_1565)"/>
<path d="M246.091 166.805C282.1 183.596 311.849 204.856 330.842 225.636C340.339 236.027 347.129 246.279 350.678 255.774C354.226 265.267 354.522 273.963 351.102 281.299C347.681 288.635 340.828 293.998 331.276 297.381C321.721 300.766 309.503 302.154 295.439 301.558C267.312 300.366 231.903 291.243 195.894 274.452C159.885 257.66 130.136 236.4 111.143 215.62C101.646 205.229 94.8561 194.977 91.307 185.482C87.7588 175.99 87.4625 167.293 90.8833 159.957C94.304 152.621 101.156 147.258 110.709 143.875C120.264 140.49 132.482 139.102 146.546 139.698C174.673 140.89 210.082 150.013 246.091 166.805Z" stroke="url(#paint79_linear_57_1565)"/>
<path d="M247.026 167.251C282.737 184.668 312.11 206.444 330.737 227.553C340.052 238.108 346.662 248.477 350.045 258.032C353.427 267.585 353.571 276.286 350.023 283.561C346.475 290.836 339.53 296.078 329.92 299.295C320.307 302.512 308.067 303.687 294.015 302.845C265.913 301.162 230.669 291.423 194.959 274.005C159.248 256.588 129.875 234.812 111.248 213.704C101.933 203.148 95.323 192.78 91.9402 183.224C88.5582 173.671 88.4137 164.971 91.9619 157.696C95.5102 150.421 102.455 145.178 112.065 141.962C121.678 138.745 133.918 137.57 147.97 138.411C176.072 140.094 211.316 149.834 247.026 167.251Z" stroke="url(#paint80_linear_57_1565)"/>
<path d="M247.954 167.713C283.355 185.751 312.344 208.037 330.6 229.467C339.729 240.183 346.157 250.666 349.372 260.279C352.587 269.889 352.58 278.591 348.905 285.803C345.23 293.015 338.195 298.135 328.53 301.184C318.863 304.232 306.604 305.194 292.569 304.107C264.501 301.934 229.432 291.581 194.031 273.543C158.63 255.505 129.641 233.22 111.385 211.789C102.256 201.073 95.8281 190.591 92.6126 180.978C89.3978 171.367 89.4052 162.665 93.0799 155.453C96.7545 148.241 103.79 143.121 113.455 140.073C123.122 137.024 135.381 136.063 149.416 137.149C177.484 139.322 212.553 149.676 247.954 167.713Z" stroke="url(#paint81_linear_57_1565)"/>
<path d="M248.873 168.192C283.954 186.845 312.55 209.633 330.429 231.378C339.369 242.252 345.614 252.845 348.661 262.513C351.707 272.178 351.548 280.878 347.748 288.025C343.948 295.172 336.825 300.169 327.108 303.048C317.389 305.928 305.115 306.675 291.101 305.343C263.075 302.681 228.193 291.717 193.112 273.064C158.031 254.411 129.435 231.623 111.556 209.878C102.616 199.004 96.3716 188.411 93.3243 178.743C90.2777 169.078 90.437 160.378 94.237 153.231C98.0369 146.084 105.161 141.087 114.877 138.208C124.596 135.328 136.87 134.581 150.884 135.913C178.91 138.575 213.793 149.539 248.873 168.192Z" stroke="url(#paint82_linear_57_1565)"/>
<path d="M249.784 168.686C284.534 187.948 312.728 211.232 330.225 233.287C338.974 244.315 345.032 255.015 347.91 264.735C350.788 274.452 350.477 283.148 346.553 290.227C342.628 297.306 335.419 302.178 325.653 304.887C315.886 307.597 303.601 308.13 289.612 306.554C261.637 303.403 226.951 291.832 192.201 272.569C157.451 253.307 129.257 230.024 111.76 207.969C103.011 196.941 96.9527 186.24 94.0746 176.521C91.1972 166.804 91.5082 158.108 95.4324 151.029C99.3565 143.949 106.566 139.077 116.332 136.368C126.099 133.659 138.384 133.126 152.373 134.702C180.348 137.853 215.034 149.424 249.784 168.686Z" stroke="url(#paint83_linear_57_1565)"/>
<path d="M250.686 169.197C285.095 189.063 312.878 212.835 329.987 235.191C338.542 246.37 344.413 257.175 347.121 266.943C349.829 276.709 349.366 285.398 345.319 292.408C341.272 299.418 333.978 304.163 324.167 306.701C314.353 309.24 302.061 309.558 288.102 307.739C260.186 304.1 225.707 291.925 191.299 272.059C156.89 252.193 129.107 228.421 111.998 206.065C103.443 194.886 97.5717 184.081 94.8637 174.313C92.1563 164.547 92.6191 155.858 96.6661 148.848C100.713 141.838 108.007 137.093 117.818 134.555C127.631 132.016 139.924 131.698 153.883 133.517C181.799 137.156 216.278 149.331 250.686 169.197Z" stroke="url(#paint84_linear_57_1565)"/>
<path d="M251.579 169.723C285.636 190.186 313 214.44 329.716 237.091C338.075 248.418 343.757 259.323 346.294 269.137C348.83 278.949 348.216 287.629 344.047 294.567C339.878 301.505 332.503 306.122 322.649 308.489C312.793 310.856 300.497 310.959 286.571 308.897C258.723 304.771 224.462 291.997 190.406 271.533C156.349 251.07 128.985 226.817 112.269 204.165C103.91 192.838 98.2285 181.933 95.6913 172.119C93.1547 162.307 93.7691 153.627 97.9379 146.689C102.107 139.751 109.482 135.134 119.336 132.767C129.192 130.4 141.489 130.297 155.414 132.36C183.262 136.485 217.523 149.26 251.579 169.723Z" stroke="url(#paint85_linear_57_1565)"/>
<path d="M252.463 170.264C286.157 191.319 313.094 216.046 329.412 238.986C337.572 250.457 343.062 261.46 345.428 271.317C347.793 281.171 347.027 289.839 342.738 296.703C338.449 303.567 330.994 308.055 321.1 310.25C311.204 312.444 298.908 312.333 285.021 310.028C257.249 305.417 223.216 292.046 189.522 270.992C155.827 249.937 128.891 225.21 112.572 202.27C104.412 190.799 98.9223 179.796 96.5568 169.939C94.1919 160.085 94.9577 151.417 99.2469 144.553C103.536 137.689 110.991 133.201 120.885 131.007C130.781 128.812 143.077 128.923 156.964 131.229C184.736 135.839 218.769 149.21 252.463 170.264Z" stroke="url(#paint86_linear_57_1565)"/>
<path d="M253.337 170.821C286.659 192.46 313.16 217.654 329.076 240.875C337.034 252.487 342.331 263.584 344.524 273.48C346.717 283.374 345.8 292.028 341.392 298.816C336.983 305.604 329.451 309.962 319.521 311.983C309.588 314.004 297.296 313.679 283.451 311.131C255.764 306.036 221.969 292.074 188.648 270.434C155.326 248.795 128.825 223.602 112.909 200.38C104.951 188.769 99.6536 177.672 97.4605 167.775C95.2679 157.881 96.1849 149.228 100.593 142.44C105.002 135.651 112.534 131.294 122.464 129.273C132.397 127.251 144.689 127.577 158.534 130.124C186.221 135.219 220.016 149.182 253.337 170.821Z" stroke="url(#paint87_linear_57_1565)"/>
<path d="M254.202 171.393C287.14 193.611 313.197 219.263 328.706 242.758C336.46 254.507 341.563 265.695 343.583 275.628C345.603 285.559 344.535 294.195 340.009 300.905C335.482 307.616 327.875 311.841 317.911 313.688C307.945 315.536 295.66 314.996 281.862 312.207C254.268 306.63 220.722 292.08 187.783 269.862C154.844 247.645 128.787 221.992 113.279 198.497C105.524 186.748 100.422 175.56 98.4016 165.627C96.382 155.696 97.4498 147.061 101.976 140.35C106.502 133.64 114.109 129.415 124.073 127.567C134.04 125.719 146.325 126.259 160.123 129.048C187.717 134.625 221.263 149.176 254.202 171.393Z" stroke="url(#paint88_linear_57_1565)"/>
<path d="M255.056 171.981C287.602 194.77 313.207 220.873 328.303 244.635C335.851 256.517 340.758 267.793 342.605 277.76C344.451 287.724 343.232 296.34 338.59 302.97C333.947 309.601 326.267 313.692 316.272 315.366C306.275 317.04 294.002 316.285 280.254 313.256C252.762 307.198 219.475 292.065 186.929 269.276C154.383 246.486 128.777 220.383 113.682 196.621C106.133 184.739 101.227 173.463 99.3802 163.496C97.5342 153.532 98.7526 144.916 103.395 138.286C108.038 131.655 115.717 127.564 125.712 125.89C135.71 124.216 147.983 124.971 161.731 128C189.223 134.058 222.51 149.191 255.056 171.981Z" stroke="url(#paint89_linear_57_1565)"/>
<path d="M255.9 172.582C288.043 195.936 313.189 222.482 327.868 246.504C335.208 258.516 339.917 269.876 341.589 279.873C343.261 289.868 341.892 298.462 337.135 305.01C332.377 311.558 324.627 315.515 314.604 317.014C304.579 318.513 292.321 317.545 278.629 314.276C251.246 307.739 218.229 292.027 186.085 268.673C153.942 245.32 128.796 218.774 114.117 194.752C106.777 182.739 102.068 171.38 100.396 161.382C98.724 151.387 100.093 142.794 104.85 136.246C109.608 129.697 117.358 125.74 127.38 124.242C137.405 122.742 149.664 123.711 163.356 126.98C190.739 133.517 223.756 149.229 255.9 172.582Z" stroke="url(#paint90_linear_57_1565)"/>
<path d="M256.733 173.199C288.464 197.11 313.143 224.091 327.4 248.366C334.529 260.504 339.039 271.944 340.537 281.969C342.034 291.992 340.515 300.56 335.644 307.024C330.773 313.489 322.955 317.31 312.908 318.634C302.858 319.957 290.619 318.775 276.985 315.268C249.721 308.254 216.983 291.968 185.252 268.057C153.521 244.146 128.842 217.165 114.585 192.89C107.456 180.752 102.946 169.312 101.448 159.287C99.9511 149.264 101.469 140.696 106.341 134.232C111.212 127.767 119.03 123.946 129.077 122.623C139.126 121.299 151.366 122.481 164.999 125.988C192.264 133.002 225.002 149.288 256.733 173.199Z" stroke="url(#paint91_linear_57_1565)"/>
<path d="M257.555 173.83C288.864 198.291 313.068 225.698 326.9 250.218C333.816 262.48 338.126 273.996 339.448 284.046C340.77 294.094 339.102 302.634 334.119 309.012C329.136 315.39 321.253 319.075 311.184 320.223C301.112 321.371 288.895 319.975 275.325 316.231C248.187 308.742 215.739 291.887 184.43 267.426C153.121 242.965 128.917 215.558 115.085 191.038C108.169 178.776 103.859 167.26 102.537 157.21C101.215 147.163 102.883 138.622 107.866 132.244C112.849 125.866 120.732 122.181 130.801 121.033C140.873 119.885 153.09 121.281 166.66 125.025C193.798 132.514 226.246 149.369 257.555 173.83Z" stroke="url(#paint92_linear_57_1565)"/>
<path d="M258.366 174.475C289.243 199.479 312.965 227.305 326.367 252.062C333.068 264.442 337.176 276.032 338.323 286.104C339.469 296.173 337.653 304.683 332.559 310.973C327.465 317.263 319.519 320.809 309.432 321.781C299.342 322.754 287.151 321.145 273.648 317.164C246.645 309.203 214.496 291.785 183.618 266.781C152.741 241.777 129.019 213.951 115.618 189.194C108.917 176.814 104.808 165.224 103.662 155.152C102.515 145.083 104.332 136.573 109.425 130.283C114.519 123.993 122.466 120.447 132.553 119.474C142.643 118.502 154.834 120.111 168.336 124.092C195.339 132.053 227.489 149.471 258.366 174.475Z" stroke="url(#paint93_linear_57_1565)"/>
<path d="M259.166 175.134C289.602 200.673 312.835 228.909 325.802 253.896C332.286 266.391 336.192 278.051 337.163 288.141C338.133 298.229 336.168 306.706 330.966 312.906C325.763 319.107 317.756 322.514 307.653 323.31C297.548 324.106 285.387 322.284 271.956 318.068C245.096 309.637 213.255 291.66 182.819 266.122C152.383 240.583 129.15 212.347 116.183 187.359C109.699 174.864 105.793 163.204 104.822 153.114C103.852 143.027 105.817 134.55 111.019 128.35C116.222 122.149 124.229 118.742 134.332 117.946C144.437 117.15 156.598 118.971 170.029 123.187C196.889 131.619 228.73 149.595 259.166 175.134Z" stroke="url(#paint94_linear_57_1565)"/>
<path d="M259.954 175.808C289.94 201.874 312.677 230.51 325.206 255.721C331.471 268.327 335.172 280.053 335.967 290.159C336.761 300.262 334.649 308.703 329.338 314.812C324.028 320.92 315.963 324.187 305.848 324.806C295.73 325.426 283.603 323.393 270.247 318.943C243.539 310.045 212.017 291.515 182.031 265.448C152.045 239.382 129.308 210.746 116.779 185.535C110.514 172.929 106.813 161.203 106.019 151.097C105.224 140.995 107.337 132.553 112.647 126.444C117.957 120.336 126.022 117.069 136.137 116.45C146.255 115.83 158.382 117.863 171.738 122.313C198.446 131.212 229.969 149.741 259.954 175.808Z" stroke="url(#paint95_linear_57_1565)"/>
<path d="M260.731 176.494C290.257 203.08 312.49 232.109 324.577 257.534C330.622 270.248 334.118 282.037 334.736 292.155C335.353 302.27 333.094 310.673 327.678 316.688C322.262 322.703 314.141 325.829 304.017 326.271C293.89 326.714 281.8 324.47 268.524 319.788C241.975 310.424 210.781 291.347 181.254 264.762C151.728 238.176 129.495 209.147 117.408 183.722C111.363 171.008 107.867 159.219 107.249 149.101C106.632 138.986 108.891 130.583 114.307 124.568C119.723 118.553 127.844 115.427 137.968 114.985C148.095 114.542 160.185 116.786 173.461 121.468C200.01 130.832 231.204 149.909 260.731 176.494Z" stroke="url(#paint96_linear_57_1565)"/>
<path d="M261.495 177.194C290.552 204.291 312.276 233.704 323.917 259.336C329.739 272.153 333.029 284.002 333.47 294.129C333.911 304.253 331.505 312.616 325.985 318.535C320.465 324.455 312.291 327.438 302.16 327.704C292.027 327.97 279.978 325.515 266.786 320.602C240.404 310.777 209.548 291.158 180.49 264.061C151.432 236.964 129.709 207.552 118.067 181.92C112.246 169.102 108.956 157.254 108.515 147.127C108.074 137.003 110.479 128.64 115.999 122.72C121.52 116.801 129.694 113.818 139.825 113.552C149.958 113.285 162.007 115.741 175.199 120.654C201.58 130.479 232.437 150.098 261.495 177.194Z" stroke="url(#paint97_linear_57_1565)"/>
<path d="M262.246 177.908C290.827 205.508 312.034 235.295 323.226 261.127C328.823 274.043 331.905 285.947 332.17 296.08C332.434 306.211 329.883 314.53 324.261 320.353C318.638 326.175 310.413 329.015 300.279 329.104C290.143 329.194 278.139 326.529 265.034 321.386C238.828 311.102 208.319 290.948 179.738 263.348C151.158 235.748 129.951 205.961 118.759 180.129C113.162 167.212 110.079 155.308 109.815 145.175C109.55 135.045 112.102 126.725 117.724 120.903C123.347 115.081 131.572 112.241 141.706 112.151C151.842 112.062 163.846 114.727 176.95 119.87C203.157 130.154 233.666 150.308 262.246 177.908Z" stroke="url(#paint98_linear_57_1565)"/>
<path d="M262.986 178.635C291.08 206.729 311.764 236.882 322.504 262.905C327.874 275.917 330.748 287.873 330.836 298.009C330.924 308.143 328.228 316.416 322.504 322.14C316.781 327.863 308.507 330.559 298.374 330.472C288.238 330.384 276.282 327.51 263.269 322.139C237.246 311.399 207.093 290.716 178.999 262.621C150.904 234.527 130.221 204.374 119.481 178.351C114.11 165.339 111.236 153.383 111.148 143.247C111.061 133.113 113.757 124.839 119.48 119.116C125.204 113.393 133.477 110.697 143.611 110.784C153.747 110.872 165.703 113.746 178.716 119.116C204.738 129.856 234.891 150.54 262.986 178.635Z" stroke="url(#paint99_linear_57_1565)"/>
<defs>
<linearGradient id="paint0_linear_57_1565" x1="249.438" y1="240.926" x2="191.807" y2="199.055" gradientUnits="userSpaceOnUse">
<stop stop-color="#295845"/>
<stop offset="1" stop-color="#C1D9E1"/>
</linearGradient>
<linearGradient id="paint1_linear_57_1565" x1="249.079" y1="241.42" x2="192.188" y2="198.549" gradientUnits="userSpaceOnUse">
<stop stop-color="#295845"/>
<stop offset="1" stop-color="#C1D9E1"/>
</linearGradient>
<linearGradient id="paint2_linear_57_1565" x1="248.712" y1="241.907" x2="192.578" y2="198.049" gradientUnits="userSpaceOnUse">
<stop stop-color="#295845"/>
<stop offset="1" stop-color="#C1D9E1"/>
</linearGradient>
<linearGradient id="paint3_linear_57_1565" x1="248.337" y1="242.387" x2="192.976" y2="197.557" gradientUnits="userSpaceOnUse">
<stop stop-color="#295845"/>
<stop offset="1" stop-color="#C1D9E1"/>
</linearGradient>
<linearGradient id="paint4_linear_57_1565" x1="247.953" y1="242.861" x2="193.383" y2="197.071" gradientUnits="userSpaceOnUse">
<stop stop-color="#295845"/>
<stop offset="1" stop-color="#C1D9E1"/>
</linearGradient>
<linearGradient id="paint5_linear_57_1565" x1="247.561" y1="243.328" x2="193.798" y2="196.593" gradientUnits="userSpaceOnUse">
<stop stop-color="#295845"/>
<stop offset="1" stop-color="#C1D9E1"/>
</linearGradient>
<linearGradient id="paint6_linear_57_1565" x1="247.16" y1="243.788" x2="194.222" y2="196.122" gradientUnits="userSpaceOnUse">
<stop stop-color="#295845"/>
<stop offset="1" stop-color="#C1D9E1"/>
</linearGradient>
<linearGradient id="paint7_linear_57_1565" x1="246.752" y1="244.242" x2="194.653" y2="195.659" gradientUnits="userSpaceOnUse">
<stop stop-color="#295845"/>
<stop offset="1" stop-color="#C1D9E1"/>
</linearGradient>
<linearGradient id="paint8_linear_57_1565" x1="246.336" y1="244.687" x2="195.093" y2="195.203" gradientUnits="userSpaceOnUse">
<stop stop-color="#295845"/>
<stop offset="1" stop-color="#C1D9E1"/>
</linearGradient>
<linearGradient id="paint9_linear_57_1565" x1="245.912" y1="245.126" x2="195.541" y2="194.755" gradientUnits="userSpaceOnUse">
<stop stop-color="#295845"/>
<stop offset="1" stop-color="#C1D9E1"/>
</linearGradient>
<linearGradient id="paint10_linear_57_1565" x1="245.481" y1="245.557" x2="195.996" y2="194.314" gradientUnits="userSpaceOnUse">
<stop stop-color="#295845"/>
<stop offset="1" stop-color="#C1D9E1"/>
</linearGradient>
<linearGradient id="paint11_linear_57_1565" x1="245.042" y1="245.981" x2="196.459" y2="193.882" gradientUnits="userSpaceOnUse">
<stop stop-color="#295845"/>
<stop offset="1" stop-color="#C1D9E1"/>
</linearGradient>
<linearGradient id="paint12_linear_57_1565" x1="244.596" y1="246.397" x2="196.93" y2="193.458" gradientUnits="userSpaceOnUse">
<stop stop-color="#295845"/>
<stop offset="1" stop-color="#C1D9E1"/>
</linearGradient>
<linearGradient id="paint13_linear_57_1565" x1="244.143" y1="246.805" x2="197.408" y2="193.042" gradientUnits="userSpaceOnUse">
<stop stop-color="#295845"/>
<stop offset="1" stop-color="#C1D9E1"/>
</linearGradient>
<linearGradient id="paint14_linear_57_1565" x1="243.682" y1="247.205" x2="197.893" y2="192.635" gradientUnits="userSpaceOnUse">
<stop stop-color="#295845"/>
<stop offset="1" stop-color="#C1D9E1"/>
</linearGradient>
<linearGradient id="paint15_linear_57_1565" x1="243.215" y1="247.597" x2="198.385" y2="192.236" gradientUnits="userSpaceOnUse">
<stop stop-color="#295845"/>
<stop offset="1" stop-color="#C1D9E1"/>
</linearGradient>
<linearGradient id="paint16_linear_57_1565" x1="242.741" y1="247.98" x2="198.884" y2="191.846" gradientUnits="userSpaceOnUse">
<stop stop-color="#295845"/>
<stop offset="1" stop-color="#C1D9E1"/>
</linearGradient>
<linearGradient id="paint17_linear_57_1565" x1="242.26" y1="248.356" x2="199.389" y2="191.464" gradientUnits="userSpaceOnUse">
<stop stop-color="#295845"/>
<stop offset="1" stop-color="#C1D9E1"/>
</linearGradient>
<linearGradient id="paint18_linear_57_1565" x1="241.773" y1="248.723" x2="199.902" y2="191.092" gradientUnits="userSpaceOnUse">
<stop stop-color="#295845"/>
<stop offset="1" stop-color="#C1D9E1"/>
</linearGradient>
<linearGradient id="paint19_linear_57_1565" x1="241.28" y1="249.081" x2="200.42" y2="190.728" gradientUnits="userSpaceOnUse">
<stop stop-color="#295845"/>
<stop offset="1" stop-color="#C1D9E1"/>
</linearGradient>
<linearGradient id="paint20_linear_57_1565" x1="240.78" y1="249.431" x2="200.945" y2="190.374" gradientUnits="userSpaceOnUse">
<stop stop-color="#295845"/>
<stop offset="1" stop-color="#C1D9E1"/>
</linearGradient>
<linearGradient id="paint21_linear_57_1565" x1="240.274" y1="249.772" x2="201.476" y2="190.028" gradientUnits="userSpaceOnUse">
<stop stop-color="#295845"/>
<stop offset="1" stop-color="#C1D9E1"/>
</linearGradient>
<linearGradient id="paint22_linear_57_1565" x1="239.763" y1="250.104" x2="202.013" y2="189.692" gradientUnits="userSpaceOnUse">
<stop stop-color="#295845"/>
<stop offset="1" stop-color="#C1D9E1"/>
</linearGradient>
<linearGradient id="paint23_linear_57_1565" x1="239.245" y1="250.427" x2="202.556" y2="189.366" gradientUnits="userSpaceOnUse">
<stop stop-color="#295845"/>
<stop offset="1" stop-color="#C1D9E1"/>
</linearGradient>
<linearGradient id="paint24_linear_57_1565" x1="238.722" y1="250.741" x2="203.104" y2="189.049" gradientUnits="userSpaceOnUse">
<stop stop-color="#295845"/>
<stop offset="1" stop-color="#C1D9E1"/>
</linearGradient>
<linearGradient id="paint25_linear_57_1565" x1="238.194" y1="251.046" x2="203.658" y2="188.741" gradientUnits="userSpaceOnUse">
<stop stop-color="#295845"/>
<stop offset="1" stop-color="#C1D9E1"/>
</linearGradient>
<linearGradient id="paint26_linear_57_1565" x1="237.661" y1="251.341" x2="204.218" y2="188.444" gradientUnits="userSpaceOnUse">
<stop stop-color="#295845"/>
<stop offset="1" stop-color="#C1D9E1"/>
</linearGradient>
<linearGradient id="paint27_linear_57_1565" x1="237.122" y1="251.628" x2="204.782" y2="188.156" gradientUnits="userSpaceOnUse">
<stop stop-color="#295845"/>
<stop offset="1" stop-color="#C1D9E1"/>
</linearGradient>
<linearGradient id="paint28_linear_57_1565" x1="236.579" y1="251.904" x2="205.351" y2="187.878" gradientUnits="userSpaceOnUse">
<stop stop-color="#295845"/>
<stop offset="1" stop-color="#C1D9E1"/>
</linearGradient>
<linearGradient id="paint29_linear_57_1565" x1="236.031" y1="252.172" x2="205.925" y2="187.61" gradientUnits="userSpaceOnUse">
<stop stop-color="#295845"/>
<stop offset="1" stop-color="#C1D9E1"/>
</linearGradient>
<linearGradient id="paint30_linear_57_1565" x1="235.478" y1="252.429" x2="206.503" y2="187.352" gradientUnits="userSpaceOnUse">
<stop stop-color="#295845"/>
<stop offset="1" stop-color="#C1D9E1"/>
</linearGradient>
<linearGradient id="paint31_linear_57_1565" x1="234.92" y1="252.677" x2="207.086" y2="187.104" gradientUnits="userSpaceOnUse">
<stop stop-color="#295845"/>
<stop offset="1" stop-color="#C1D9E1"/>
</linearGradient>
<linearGradient id="paint32_linear_57_1565" x1="234.359" y1="252.916" x2="207.674" y2="186.867" gradientUnits="userSpaceOnUse">
<stop stop-color="#295845"/>
<stop offset="1" stop-color="#C1D9E1"/>
</linearGradient>
<linearGradient id="paint33_linear_57_1565" x1="233.794" y1="253.144" x2="208.265" y2="186.639" gradientUnits="userSpaceOnUse">
<stop stop-color="#295845"/>
<stop offset="1" stop-color="#C1D9E1"/>
</linearGradient>
<linearGradient id="paint34_linear_57_1565" x1="233.224" y1="253.362" x2="208.86" y2="186.422" gradientUnits="userSpaceOnUse">
<stop stop-color="#295845"/>
<stop offset="1" stop-color="#C1D9E1"/>
</linearGradient>
<linearGradient id="paint35_linear_57_1565" x1="232.651" y1="253.571" x2="209.459" y2="186.216" gradientUnits="userSpaceOnUse">
<stop stop-color="#295845"/>
<stop offset="1" stop-color="#C1D9E1"/>
</linearGradient>
<linearGradient id="paint36_linear_57_1565" x1="232.074" y1="253.769" x2="210.061" y2="186.02" gradientUnits="userSpaceOnUse">
<stop stop-color="#295845"/>
<stop offset="1" stop-color="#C1D9E1"/>
</linearGradient>
<linearGradient id="paint37_linear_57_1565" x1="231.494" y1="253.958" x2="210.667" y2="185.834" gradientUnits="userSpaceOnUse">
<stop stop-color="#295845"/>
<stop offset="1" stop-color="#C1D9E1"/>
</linearGradient>
<linearGradient id="paint38_linear_57_1565" x1="230.911" y1="254.136" x2="211.275" y2="185.659" gradientUnits="userSpaceOnUse">
<stop stop-color="#295845"/>
<stop offset="1" stop-color="#C1D9E1"/>
</linearGradient>
<linearGradient id="paint39_linear_57_1565" x1="230.325" y1="254.304" x2="211.888" y2="185.495" gradientUnits="userSpaceOnUse">
<stop stop-color="#295845"/>
<stop offset="1" stop-color="#C1D9E1"/>
</linearGradient>
<linearGradient id="paint40_linear_57_1565" x1="229.735" y1="254.461" x2="212.502" y2="185.341" gradientUnits="userSpaceOnUse">
<stop stop-color="#295845"/>
<stop offset="1" stop-color="#C1D9E1"/>
</linearGradient>
<linearGradient id="paint41_linear_57_1565" x1="229.143" y1="254.609" x2="213.119" y2="185.199" gradientUnits="userSpaceOnUse">
<stop stop-color="#295845"/>
<stop offset="1" stop-color="#C1D9E1"/>
</linearGradient>
<linearGradient id="paint42_linear_57_1565" x1="228.549" y1="254.746" x2="213.739" y2="185.067" gradientUnits="userSpaceOnUse">
<stop stop-color="#295845"/>
<stop offset="1" stop-color="#C1D9E1"/>
</linearGradient>
<linearGradient id="paint43_linear_57_1565" x1="227.953" y1="254.873" x2="214.36" y2="184.946" gradientUnits="userSpaceOnUse">
<stop stop-color="#295845"/>
<stop offset="1" stop-color="#C1D9E1"/>
</linearGradient>
<linearGradient id="paint44_linear_57_1565" x1="227.354" y1="254.989" x2="214.984" y2="184.835" gradientUnits="userSpaceOnUse">
<stop stop-color="#295845"/>
<stop offset="1" stop-color="#C1D9E1"/>
</linearGradient>
<linearGradient id="paint45_linear_57_1565" x1="226.753" y1="255.095" x2="215.61" y2="184.736" gradientUnits="userSpaceOnUse">
<stop stop-color="#295845"/>
<stop offset="1" stop-color="#C1D9E1"/>
</linearGradient>
<linearGradient id="paint46_linear_57_1565" x1="226.151" y1="255.19" x2="216.237" y2="184.647" gradientUnits="userSpaceOnUse">
<stop stop-color="#295845"/>
<stop offset="1" stop-color="#C1D9E1"/>
</linearGradient>
<linearGradient id="paint47_linear_57_1565" x1="225.547" y1="255.275" x2="216.866" y2="184.57" gradientUnits="userSpaceOnUse">
<stop stop-color="#295845"/>
<stop offset="1" stop-color="#C1D9E1"/>
</linearGradient>
<linearGradient id="paint48_linear_57_1565" x1="224.942" y1="255.349" x2="217.495" y2="184.503" gradientUnits="userSpaceOnUse">
<stop stop-color="#295845"/>
<stop offset="1" stop-color="#C1D9E1"/>
</linearGradient>
<linearGradient id="paint49_linear_57_1565" x1="224.335" y1="255.413" x2="218.127" y2="184.448" gradientUnits="userSpaceOnUse">
<stop stop-color="#295845"/>
<stop offset="1" stop-color="#C1D9E1"/>
</linearGradient>
<linearGradient id="paint50_linear_57_1565" x1="223.727" y1="255.466" x2="218.758" y2="184.404" gradientUnits="userSpaceOnUse">
<stop stop-color="#295845"/>
<stop offset="1" stop-color="#C1D9E1"/>
</linearGradient>
<linearGradient id="paint51_linear_57_1565" x1="223.119" y1="255.508" x2="219.391" y2="184.37" gradientUnits="userSpaceOnUse">
<stop stop-color="#295845"/>
<stop offset="1" stop-color="#C1D9E1"/>
</linearGradient>
<linearGradient id="paint52_linear_57_1565" x1="222.51" y1="255.54" x2="220.024" y2="184.348" gradientUnits="userSpaceOnUse">
<stop stop-color="#295845"/>
<stop offset="1" stop-color="#C1D9E1"/>
</linearGradient>
<linearGradient id="paint53_linear_57_1565" x1="221.9" y1="255.561" x2="220.657" y2="184.336" gradientUnits="userSpaceOnUse">
<stop stop-color="#295845"/>
<stop offset="1" stop-color="#C1D9E1"/>
</linearGradient>
<linearGradient id="paint54_linear_57_1565" x1="221.291" y1="255.572" x2="221.291" y2="184.336" gradientUnits="userSpaceOnUse">
<stop stop-color="#295845"/>
<stop offset="1" stop-color="#C1D9E1"/>
</linearGradient>
<linearGradient id="paint55_linear_57_1565" x1="220.681" y1="255.572" x2="221.924" y2="184.347" gradientUnits="userSpaceOnUse">
<stop stop-color="#295845"/>
<stop offset="1" stop-color="#C1D9E1"/>
</linearGradient>
<linearGradient id="paint56_linear_57_1565" x1="220.071" y1="255.561" x2="222.557" y2="184.368" gradientUnits="userSpaceOnUse">
<stop stop-color="#295845"/>
<stop offset="1" stop-color="#C1D9E1"/>
</linearGradient>
<linearGradient id="paint57_linear_57_1565" x1="219.461" y1="255.539" x2="223.19" y2="184.401" gradientUnits="userSpaceOnUse">
<stop stop-color="#295845"/>
<stop offset="1" stop-color="#C1D9E1"/>
</linearGradient>
<linearGradient id="paint58_linear_57_1565" x1="218.852" y1="255.508" x2="223.822" y2="184.445" gradientUnits="userSpaceOnUse">
<stop stop-color="#295845"/>
<stop offset="1" stop-color="#C1D9E1"/>
</linearGradient>
<linearGradient id="paint59_linear_57_1565" x1="218.244" y1="255.465" x2="224.453" y2="184.5" gradientUnits="userSpaceOnUse">
<stop stop-color="#295845"/>
<stop offset="1" stop-color="#C1D9E1"/>
</linearGradient>
<linearGradient id="paint60_linear_57_1565" x1="217.636" y1="255.411" x2="225.083" y2="184.566" gradientUnits="userSpaceOnUse">
<stop stop-color="#295845"/>
<stop offset="1" stop-color="#C1D9E1"/>
</linearGradient>
<linearGradient id="paint61_linear_57_1565" x1="217.03" y1="255.348" x2="225.711" y2="184.643" gradientUnits="userSpaceOnUse">
<stop stop-color="#295845"/>
<stop offset="1" stop-color="#C1D9E1"/>
</linearGradient>
<linearGradient id="paint62_linear_57_1565" x1="216.425" y1="255.273" x2="226.339" y2="184.73" gradientUnits="userSpaceOnUse">
<stop stop-color="#295845"/>
<stop offset="1" stop-color="#C1D9E1"/>
</linearGradient>
<linearGradient id="paint63_linear_57_1565" x1="215.82" y1="255.188" x2="226.964" y2="184.829" gradientUnits="userSpaceOnUse">
<stop stop-color="#295845"/>
<stop offset="1" stop-color="#C1D9E1"/>
</linearGradient>
<linearGradient id="paint64_linear_57_1565" x1="215.218" y1="255.093" x2="227.588" y2="184.939" gradientUnits="userSpaceOnUse">
<stop stop-color="#295845"/>
<stop offset="1" stop-color="#C1D9E1"/>
</linearGradient>
<linearGradient id="paint65_linear_57_1565" x1="214.618" y1="254.987" x2="228.21" y2="185.06" gradientUnits="userSpaceOnUse">
<stop stop-color="#295845"/>
<stop offset="1" stop-color="#C1D9E1"/>
</linearGradient>
<linearGradient id="paint66_linear_57_1565" x1="214.019" y1="254.87" x2="228.83" y2="185.191" gradientUnits="userSpaceOnUse">
<stop stop-color="#295845"/>
<stop offset="1" stop-color="#C1D9E1"/>
</linearGradient>
<linearGradient id="paint67_linear_57_1565" x1="213.422" y1="254.743" x2="229.447" y2="185.333" gradientUnits="userSpaceOnUse">
<stop stop-color="#295845"/>
<stop offset="1" stop-color="#C1D9E1"/>
</linearGradient>
<linearGradient id="paint68_linear_57_1565" x1="212.828" y1="254.606" x2="230.062" y2="185.486" gradientUnits="userSpaceOnUse">
<stop stop-color="#295845"/>
<stop offset="1" stop-color="#C1D9E1"/>
</linearGradient>
<linearGradient id="paint69_linear_57_1565" x1="212.236" y1="254.458" x2="230.674" y2="185.65" gradientUnits="userSpaceOnUse">
<stop stop-color="#295845"/>
<stop offset="1" stop-color="#C1D9E1"/>
</linearGradient>
<linearGradient id="paint70_linear_57_1565" x1="211.647" y1="254.3" x2="231.283" y2="185.824" gradientUnits="userSpaceOnUse">
<stop stop-color="#295845"/>
<stop offset="1" stop-color="#C1D9E1"/>
</linearGradient>
<linearGradient id="paint71_linear_57_1565" x1="211.061" y1="254.132" x2="231.888" y2="186.009" gradientUnits="userSpaceOnUse">
<stop stop-color="#295845"/>
<stop offset="1" stop-color="#C1D9E1"/>
</linearGradient>
<linearGradient id="paint72_linear_57_1565" x1="210.478" y1="253.954" x2="232.491" y2="186.204" gradientUnits="userSpaceOnUse">
<stop stop-color="#295845"/>
<stop offset="1" stop-color="#C1D9E1"/>
</linearGradient>
<linearGradient id="paint73_linear_57_1565" x1="209.898" y1="253.765" x2="233.09" y2="186.41" gradientUnits="userSpaceOnUse">
<stop stop-color="#295845"/>
<stop offset="1" stop-color="#C1D9E1"/>
</linearGradient>
<linearGradient id="paint74_linear_57_1565" x1="209.321" y1="253.566" x2="233.685" y2="186.626" gradientUnits="userSpaceOnUse">
<stop stop-color="#295845"/>
<stop offset="1" stop-color="#C1D9E1"/>
</linearGradient>
<linearGradient id="paint75_linear_57_1565" x1="208.748" y1="253.358" x2="234.277" y2="186.853" gradientUnits="userSpaceOnUse">
<stop stop-color="#295845"/>
<stop offset="1" stop-color="#C1D9E1"/>
</linearGradient>
<linearGradient id="paint76_linear_57_1565" x1="208.179" y1="253.139" x2="234.864" y2="187.09" gradientUnits="userSpaceOnUse">
<stop stop-color="#295845"/>
<stop offset="1" stop-color="#C1D9E1"/>
</linearGradient>
<linearGradient id="paint77_linear_57_1565" x1="207.614" y1="252.911" x2="235.448" y2="187.337" gradientUnits="userSpaceOnUse">
<stop stop-color="#295845"/>
<stop offset="1" stop-color="#C1D9E1"/>
</linearGradient>
<linearGradient id="paint78_linear_57_1565" x1="207.052" y1="252.672" x2="236.026" y2="187.595" gradientUnits="userSpaceOnUse">
<stop stop-color="#295845"/>
<stop offset="1" stop-color="#C1D9E1"/>
</linearGradient>
<linearGradient id="paint79_linear_57_1565" x1="206.495" y1="252.424" x2="236.6" y2="187.862" gradientUnits="userSpaceOnUse">
<stop stop-color="#295845"/>
<stop offset="1" stop-color="#C1D9E1"/>
</linearGradient>
<linearGradient id="paint80_linear_57_1565" x1="205.942" y1="252.166" x2="237.17" y2="188.14" gradientUnits="userSpaceOnUse">
<stop stop-color="#295845"/>
<stop offset="1" stop-color="#C1D9E1"/>
</linearGradient>
<linearGradient id="paint81_linear_57_1565" x1="205.394" y1="251.899" x2="237.734" y2="188.427" gradientUnits="userSpaceOnUse">
<stop stop-color="#295845"/>
<stop offset="1" stop-color="#C1D9E1"/>
</linearGradient>
<linearGradient id="paint82_linear_57_1565" x1="204.851" y1="251.622" x2="238.294" y2="188.724" gradientUnits="userSpaceOnUse">
<stop stop-color="#295845"/>
<stop offset="1" stop-color="#C1D9E1"/>
</linearGradient>
<linearGradient id="paint83_linear_57_1565" x1="204.312" y1="251.335" x2="238.848" y2="189.031" gradientUnits="userSpaceOnUse">
<stop stop-color="#295845"/>
<stop offset="1" stop-color="#C1D9E1"/>
</linearGradient>
<linearGradient id="paint84_linear_57_1565" x1="203.779" y1="251.039" x2="239.397" y2="189.347" gradientUnits="userSpaceOnUse">
<stop stop-color="#295845"/>
<stop offset="1" stop-color="#C1D9E1"/>
</linearGradient>
<linearGradient id="paint85_linear_57_1565" x1="203.251" y1="250.734" x2="239.94" y2="189.673" gradientUnits="userSpaceOnUse">
<stop stop-color="#295845"/>
<stop offset="1" stop-color="#C1D9E1"/>
</linearGradient>
<linearGradient id="paint86_linear_57_1565" x1="202.728" y1="250.42" x2="240.477" y2="190.009" gradientUnits="userSpaceOnUse">
<stop stop-color="#295845"/>
<stop offset="1" stop-color="#C1D9E1"/>
</linearGradient>
<linearGradient id="paint87_linear_57_1565" x1="202.211" y1="250.097" x2="241.009" y2="190.353" gradientUnits="userSpaceOnUse">
<stop stop-color="#295845"/>
<stop offset="1" stop-color="#C1D9E1"/>
</linearGradient>
<linearGradient id="paint88_linear_57_1565" x1="201.699" y1="249.764" x2="241.534" y2="190.707" gradientUnits="userSpaceOnUse">
<stop stop-color="#295845"/>
<stop offset="1" stop-color="#C1D9E1"/>
</linearGradient>
<linearGradient id="paint89_linear_57_1565" x1="201.194" y1="249.423" x2="242.053" y2="191.07" gradientUnits="userSpaceOnUse">
<stop stop-color="#295845"/>
<stop offset="1" stop-color="#C1D9E1"/>
</linearGradient>
<linearGradient id="paint90_linear_57_1565" x1="200.694" y1="249.073" x2="242.566" y2="191.442" gradientUnits="userSpaceOnUse">
<stop stop-color="#295845"/>
<stop offset="1" stop-color="#C1D9E1"/>
</linearGradient>
<linearGradient id="paint91_linear_57_1565" x1="200.201" y1="248.715" x2="243.072" y2="191.823" gradientUnits="userSpaceOnUse">
<stop stop-color="#295845"/>
<stop offset="1" stop-color="#C1D9E1"/>
</linearGradient>
<linearGradient id="paint92_linear_57_1565" x1="199.714" y1="248.348" x2="243.571" y2="192.213" gradientUnits="userSpaceOnUse">
<stop stop-color="#295845"/>
<stop offset="1" stop-color="#C1D9E1"/>
</linearGradient>
<linearGradient id="paint93_linear_57_1565" x1="199.233" y1="247.972" x2="244.063" y2="192.611" gradientUnits="userSpaceOnUse">
<stop stop-color="#295845"/>
<stop offset="1" stop-color="#C1D9E1"/>
</linearGradient>
<linearGradient id="paint94_linear_57_1565" x1="198.759" y1="247.588" x2="244.549" y2="193.018" gradientUnits="userSpaceOnUse">
<stop stop-color="#295845"/>
<stop offset="1" stop-color="#C1D9E1"/>
</linearGradient>
<linearGradient id="paint95_linear_57_1565" x1="198.293" y1="247.196" x2="245.028" y2="193.434" gradientUnits="userSpaceOnUse">
<stop stop-color="#295845"/>
<stop offset="1" stop-color="#C1D9E1"/>
</linearGradient>
<linearGradient id="paint96_linear_57_1565" x1="197.832" y1="246.796" x2="245.498" y2="193.857" gradientUnits="userSpaceOnUse">
<stop stop-color="#295845"/>
<stop offset="1" stop-color="#C1D9E1"/>
</linearGradient>
<linearGradient id="paint97_linear_57_1565" x1="197.379" y1="246.388" x2="245.962" y2="194.289" gradientUnits="userSpaceOnUse">
<stop stop-color="#295845"/>
<stop offset="1" stop-color="#C1D9E1"/>
</linearGradient>
<linearGradient id="paint98_linear_57_1565" x1="196.933" y1="245.972" x2="246.418" y2="194.729" gradientUnits="userSpaceOnUse">
<stop stop-color="#295845"/>
<stop offset="1" stop-color="#C1D9E1"/>
</linearGradient>
<linearGradient id="paint99_linear_57_1565" x1="196.494" y1="245.548" x2="246.866" y2="195.176" gradientUnits="userSpaceOnUse">
<stop stop-color="#295845"/>
<stop offset="1" stop-color="#C1D9E1"/>
</linearGradient>
</defs>
</svg>
